<svg xmlns="http://www.w3.org/2000/svg" height="750pt" version="1.1" viewBox="0 0 750 750" width="750pt">
<g id="surface1">
<path d="M 82.324219 725 L 25 725 L 25 667.675781 L 146.335938 546.335938 L 128.664062 528.664062 L 3.664062 653.664062 C 1.320312 656.007812 0 659.183594 0 662.5 L 0 737.5 C 0 744.40625 5.59375 750 12.5 750 L 87.5 750 C 90.816406 750 93.992188 748.679688 96.335938 746.335938 L 196.335938 646.335938 L 178.664062 628.664062 Z M 82.324219 725 " style=" stroke:none;fill-rule:nonzero;fill:rgb(0%,0%,0%);fill-opacity:1;" />
<path d="M 696.335938 3.660156 C 691.453125 -1.21875 683.546875 -1.21875 678.664062 3.660156 L 659.914062 22.414062 C 658.960938 23.363281 658.164062 24.457031 657.5625 25.660156 L 645.976562 48.832031 L 562.5 132.3125 L 518.460938 88.277344 C 515.585938 62.234375 493.109375 42.84375 466.933594 43.796875 C 440.761719 44.753906 419.757812 65.75 418.796875 91.933594 C 417.84375 118.109375 437.246094 140.585938 463.277344 143.460938 L 488.5625 168.75 L 480.835938 176.472656 C 479.042969 175.511719 477.039062 175.003906 475 175 L 275 175 C 272.960938 175.003906 270.957031 175.511719 269.164062 176.472656 L 261.4375 168.75 L 286.722656 143.460938 C 312.753906 140.585938 332.15625 118.109375 331.203125 91.933594 C 330.242188 65.75 309.238281 44.753906 283.066406 43.796875 C 256.890625 42.84375 234.414062 62.234375 231.539062 88.277344 L 187.5 132.3125 L 104.023438 48.832031 L 92.5 25.660156 C 91.894531 24.457031 91.101562 23.363281 90.148438 22.414062 L 71.398438 3.660156 C 66.515625 -1.21875 58.601562 -1.21875 53.71875 3.660156 L 3.71875 53.664062 C -1.152344 58.546875 -1.152344 66.453125 3.71875 71.335938 L 22.46875 90.085938 C 23.429688 91.039062 24.523438 91.835938 25.726562 92.4375 L 48.902344 104.023438 L 132.3125 187.5 L 88.277344 231.539062 C 61.828125 234.382812 42.242188 257.429688 43.703125 283.988281 C 45.160156 310.546875 67.148438 331.320312 93.75 331.25 C 100.1875 331.230469 106.554688 329.957031 112.5 327.5 L 112.5 350.800781 C 112.652344 522.535156 213.335938 678.273438 369.875 748.902344 C 373.132812 750.367188 376.867188 750.367188 380.125 748.902344 C 536.644531 678.277344 637.328125 522.5625 637.5 350.851562 L 637.5 327.5 C 643.445312 329.957031 649.8125 331.230469 656.25 331.25 C 682.851562 331.320312 704.839844 310.546875 706.296875 283.988281 C 707.757812 257.429688 688.171875 234.382812 661.722656 231.539062 L 617.6875 187.5 L 701.164062 104.023438 L 724.335938 92.5 C 725.542969 91.894531 726.636719 91.101562 727.585938 90.148438 L 746.335938 71.398438 C 751.214844 66.515625 751.214844 58.601562 746.335938 53.71875 Z M 656.25 73.925781 L 676.074219 93.75 L 650 119.824219 L 630.175781 100 Z M 590.664062 270.851562 C 585.738281 269.683594 580.878906 268.257812 576.097656 266.578125 L 581.25 261.4375 Z M 552.089844 255.234375 C 543.875 250.476562 536.15625 244.917969 529.054688 238.625 L 543.75 223.9375 L 563.5625 243.75 Z M 526.0625 206.25 L 511.675781 220.648438 C 508.066406 216.191406 504.730469 211.523438 501.671875 206.679688 L 495.625 196.996094 L 506.203125 186.4375 Z M 254.328125 196.996094 L 248.273438 206.679688 C 245.21875 211.523438 241.882812 216.191406 238.277344 220.648438 L 223.9375 206.25 L 243.75 186.4375 Z M 168.75 261.4375 L 173.902344 266.578125 C 169.121094 268.257812 164.261719 269.683594 159.335938 270.851562 Z M 197.910156 255.1875 L 186.4375 243.703125 L 206.25 223.9375 L 220.945312 238.625 C 213.84375 244.917969 206.125 250.476562 197.910156 255.234375 Z M 119.824219 100 L 100 119.824219 L 73.925781 93.75 L 93.75 73.925781 Z M 30.175781 62.5 L 62.5 30.175781 L 70.976562 38.664062 L 78.472656 53.785156 L 53.75 78.539062 L 38.625 71.039062 Z M 117.675781 137.5 L 137.5 117.675781 L 169.8125 150 L 150 169.8125 Z M 93.75 306.25 C 79.941406 306.25 68.75 295.058594 68.75 281.25 C 68.75 267.441406 79.941406 256.25 93.75 256.25 C 97.066406 256.25 100.242188 254.929688 102.585938 252.585938 L 252.585938 102.585938 C 254.929688 100.242188 256.25 97.066406 256.25 93.75 C 256.25 79.941406 267.441406 68.75 281.25 68.75 C 295.058594 68.75 306.25 79.941406 306.25 93.75 C 306.25 107.558594 295.058594 118.75 281.25 118.75 C 277.933594 118.75 274.757812 120.070312 272.414062 122.414062 L 122.414062 272.414062 C 120.070312 274.757812 118.75 277.933594 118.75 281.25 C 118.75 284.5625 118.089844 287.835938 116.816406 290.890625 C 116.726562 291.023438 116.65625 291.171875 116.59375 291.328125 C 112.597656 300.382812 103.640625 306.230469 93.75 306.25 Z M 612.5 350.851562 C 612.34375 510.6875 519.78125 656.015625 375 723.75 C 230.21875 656.015625 137.65625 510.6875 137.5 350.851562 L 137.5 306.976562 C 137.519531 306.125 137.675781 305.277344 137.964844 304.472656 C 138.203125 304.023438 138.375 303.539062 138.597656 303.078125 C 139.898438 300.679688 142.289062 299.066406 145 298.757812 C 196.328125 292.84375 242.148438 263.84375 269.476562 220 L 281.976562 200.058594 L 468.105469 200.058594 L 480.605469 220 C 507.898438 263.847656 553.691406 292.867188 605 298.824219 C 607.710938 299.125 610.101562 300.738281 611.402344 303.132812 C 611.625 303.601562 611.796875 304.09375 612.035156 304.535156 C 612.324219 305.34375 612.480469 306.179688 612.5 307.035156 Z M 656.25 256.25 C 668.730469 256.226562 679.316406 265.421875 681.050781 277.777344 C 682.78125 290.136719 675.136719 301.878906 663.128906 305.296875 C 651.128906 308.710938 638.4375 302.742188 633.40625 291.328125 C 633.34375 291.171875 633.273438 291.023438 633.183594 290.890625 C 631.910156 287.835938 631.25 284.5625 631.25 281.25 C 631.25 277.933594 629.929688 274.757812 627.585938 272.414062 L 477.585938 122.414062 C 475.242188 120.070312 472.066406 118.75 468.75 118.75 C 454.941406 118.75 443.75 107.558594 443.75 93.75 C 443.75 79.941406 454.941406 68.75 468.75 68.75 C 482.558594 68.75 493.75 79.941406 493.75 93.75 C 493.75 97.066406 495.070312 100.242188 497.414062 102.585938 L 647.414062 252.585938 C 649.757812 254.929688 652.933594 256.25 656.25 256.25 Z M 580.1875 150 L 612.5 117.675781 L 632.324219 137.5 L 600 169.8125 Z M 711.335938 70.972656 L 696.210938 78.472656 L 671.460938 53.75 L 679.023438 38.625 L 687.5 30.175781 L 719.824219 62.5 Z M 711.335938 70.972656 " style=" stroke:none;fill-rule:nonzero;fill:rgb(0%,0%,0%);fill-opacity:1;" />
<path d="M 53.65625 678.667969 L 153.664062 578.667969 L 171.335938 596.34375 L 71.335938 696.34375 Z M 53.65625 678.667969 " style=" stroke:none;fill-rule:nonzero;fill:rgb(0%,0%,0%);fill-opacity:1;" />
<path d="M 621.335938 528.664062 L 603.664062 546.335938 L 725 667.675781 L 725 725 L 667.675781 725 L 571.335938 628.664062 L 553.664062 646.335938 L 653.664062 746.335938 C 656.007812 748.679688 659.183594 750 662.5 750 L 737.5 750 C 744.40625 750 750 744.40625 750 737.5 L 750 662.5 C 750 659.183594 748.679688 656.007812 746.335938 653.664062 Z M 621.335938 528.664062 " style=" stroke:none;fill-rule:nonzero;fill:rgb(0%,0%,0%);fill-opacity:1;" />
<path d="M 578.664062 596.335938 L 596.34375 578.664062 L 696.34375 678.664062 L 678.667969 696.335938 Z M 578.664062 596.335938 " style=" stroke:none;fill-rule:nonzero;fill:rgb(0%,0%,0%);fill-opacity:1;" />
<path d="M 577.972656 319.34375 C 528.679688 307.285156 486.085938 276.363281 459.351562 233.226562 L 457.921875 230.925781 C 455.644531 227.242188 451.621094 225 447.289062 225 L 302.710938 225 C 298.394531 225 294.382812 227.222656 292.101562 230.886719 L 290.671875 233.171875 C 263.941406 276.335938 221.335938 307.28125 172.027344 319.34375 C 166.429688 320.722656 162.496094 325.738281 162.5 331.5 L 162.5 350.851562 C 162.285156 494.488281 241.9375 626.328125 369.179688 692.972656 C 372.820312 694.898438 377.179688 694.898438 380.820312 692.972656 C 508.0625 626.328125 587.714844 494.488281 587.5 350.851562 L 587.5 331.5 C 587.503906 325.738281 583.570312 320.722656 577.972656 319.34375 Z M 562.5 350.851562 C 562.703125 482.832031 490.78125 604.375 375 667.726562 C 259.21875 604.375 187.296875 482.832031 187.5 350.851562 L 187.5 341.074219 C 237.804688 326.335938 281.140625 294.019531 309.601562 250 L 440.386719 250 C 468.859375 294.015625 512.195312 326.335938 562.5 341.074219 Z M 562.5 350.851562 " style=" stroke:none;fill-rule:nonzero;fill:rgb(0%,0%,0%);fill-opacity:1;" />
<path d="M 212.5 362.5 L 237.5 362.5 L 237.5 387.5 L 212.5 387.5 Z M 212.5 362.5 " style=" stroke:none;fill-rule:nonzero;fill:rgb(0%,0%,0%);fill-opacity:1;" />
<path d="M 300 300 L 325 300 L 325 325 L 300 325 Z M 300 300 " style=" stroke:none;fill-rule:nonzero;fill:rgb(0%,0%,0%);fill-opacity:1;" />
<path d="M 425 300 L 450 300 L 450 325 L 425 325 Z M 425 300 " style=" stroke:none;fill-rule:nonzero;fill:rgb(0%,0%,0%);fill-opacity:1;" />
<path d="M 362.5 612.5 L 387.5 612.5 L 387.5 637.5 L 362.5 637.5 Z M 362.5 612.5 " style=" stroke:none;fill-rule:nonzero;fill:rgb(0%,0%,0%);fill-opacity:1;" />
<path d="M 237.5 450 L 262.5 450 L 262.5 475 L 237.5 475 Z M 237.5 450 " style=" stroke:none;fill-rule:nonzero;fill:rgb(0%,0%,0%);fill-opacity:1;" />
<path d="M 287.5 537.5 L 312.5 537.5 L 312.5 562.5 L 287.5 562.5 Z M 287.5 537.5 " style=" stroke:none;fill-rule:nonzero;fill:rgb(0%,0%,0%);fill-opacity:1;" />
<path d="M 512.5 362.5 L 537.5 362.5 L 537.5 387.5 L 512.5 387.5 Z M 512.5 362.5 " style=" stroke:none;fill-rule:nonzero;fill:rgb(0%,0%,0%);fill-opacity:1;" />
<path d="M 487.5 450 L 512.5 450 L 512.5 475 L 487.5 475 Z M 487.5 450 " style=" stroke:none;fill-rule:nonzero;fill:rgb(0%,0%,0%);fill-opacity:1;" />
<path d="M 437.5 537.5 L 462.5 537.5 L 462.5 562.5 L 437.5 562.5 Z M 437.5 537.5 " style=" stroke:none;fill-rule:nonzero;fill:rgb(0%,0%,0%);fill-opacity:1;" />
</g>
</svg>