<svg xmlns="http://www.w3.org/2000/svg" height="747pt" version="1.1" viewBox="-37 0 747 747.49881" width="747pt">
<g id="surface1">
<path d="M 37.628906 747.5 L 361.589844 747.5 C 382.230469 747.5 398.96875 730.761719 398.96875 710.121094 L 398.96875 672.738281 C 398.96875 665.859375 393.386719 660.28125 386.507812 660.28125 L 361.589844 660.28125 L 361.589844 485.839844 C 361.589844 465.195312 344.851562 448.460938 324.207031 448.460938 L 75.007812 448.460938 C 54.367188 448.460938 37.628906 465.195312 37.628906 485.839844 L 37.628906 660.28125 L 12.710938 660.28125 C 5.828125 660.28125 0.25 665.859375 0.25 672.738281 L 0.25 710.121094 C 0.25 730.761719 16.984375 747.5 37.628906 747.5 Z M 62.546875 485.839844 C 62.546875 478.957031 68.128906 473.378906 75.007812 473.378906 L 324.207031 473.378906 C 331.089844 473.378906 336.667969 478.957031 336.667969 485.839844 L 336.667969 660.28125 L 236.988281 660.28125 C 233.683594 660.28125 230.515625 661.59375 228.179688 663.929688 L 219.371094 672.738281 L 179.851562 672.738281 L 171.039062 663.929688 C 168.703125 661.59375 165.53125 660.28125 162.230469 660.28125 L 62.546875 660.28125 Z M 25.167969 685.199219 L 157.070312 685.199219 L 165.878906 694.007812 C 168.214844 696.347656 171.386719 697.660156 174.691406 697.660156 L 224.53125 697.660156 C 227.832031 697.660156 231 696.347656 233.335938 694.007812 L 242.148438 685.199219 L 374.046875 685.199219 L 374.046875 710.121094 C 374.046875 717 368.46875 722.578125 361.589844 722.578125 L 37.628906 722.578125 C 30.746094 722.578125 25.167969 717 25.167969 710.121094 Z M 25.167969 685.199219 " style=" stroke:none;fill-rule:nonzero;fill:rgb(0%,0%,0%);fill-opacity:1;" />
<path d="M 473.730469 485.839844 L 473.730469 710.121094 C 473.730469 730.761719 490.46875 747.5 511.109375 747.5 L 635.707031 747.5 C 656.351562 747.5 673.085938 730.761719 673.085938 710.121094 L 673.085938 485.839844 C 673.085938 465.195312 656.351562 448.460938 635.707031 448.460938 L 511.109375 448.460938 C 490.46875 448.460938 473.730469 465.195312 473.730469 485.839844 Z M 648.167969 485.839844 L 648.167969 710.121094 C 648.167969 717 642.589844 722.578125 635.707031 722.578125 L 511.109375 722.578125 C 504.230469 722.578125 498.652344 717 498.652344 710.121094 L 498.652344 485.839844 C 498.652344 478.957031 504.230469 473.378906 511.109375 473.378906 L 635.707031 473.378906 C 642.589844 473.378906 648.167969 478.957031 648.167969 485.839844 Z M 648.167969 485.839844 " style=" stroke:none;fill-rule:nonzero;fill:rgb(0%,0%,0%);fill-opacity:1;" />
<path d="M 560.949219 672.738281 L 585.867188 672.738281 L 585.867188 697.660156 L 560.949219 697.660156 Z M 560.949219 672.738281 " style=" stroke:none;fill-rule:nonzero;fill:rgb(0%,0%,0%);fill-opacity:1;" />
<path d="M 187.152344 398.621094 L 212.070312 398.621094 L 212.070312 423.539062 L 187.152344 423.539062 Z M 187.152344 398.621094 " style=" stroke:none;fill-rule:nonzero;fill:rgb(0%,0%,0%);fill-opacity:1;" />
<path d="M 187.152344 348.78125 L 212.070312 348.78125 L 212.070312 373.699219 L 187.152344 373.699219 Z M 187.152344 348.78125 " style=" stroke:none;fill-rule:nonzero;fill:rgb(0%,0%,0%);fill-opacity:1;" />
<path d="M 610.539062 153.03125 C 606.703125 83.683594 559.078125 24.5 492.148438 5.917969 C 425.226562 -12.667969 353.898438 13.480469 314.851562 70.925781 C 282.011719 47.269531 238.960938 43.164062 202.246094 60.1875 C 165.523438 77.210938 140.832031 112.707031 137.65625 153.058594 C 96.226562 165.414062 70.09375 206.261719 76.25 249.058594 C 82.40625 291.859375 118.992188 323.6875 162.230469 323.859375 L 585.867188 323.859375 C 629.160156 323.773438 665.832031 291.949219 672.019531 249.109375 C 678.207031 206.261719 652.03125 165.367188 610.539062 153.03125 Z M 585.867188 298.941406 L 162.230469 298.941406 C 129.992188 298.730469 103.234375 273.957031 100.550781 241.835938 C 97.859375 209.703125 120.125 180.828125 151.886719 175.273438 C 158.027344 173.75 162.308594 168.199219 162.230469 161.878906 C 162.191406 127.027344 182.933594 95.5 214.957031 81.730469 C 246.988281 67.96875 284.128906 74.617188 309.394531 98.628906 C 312.191406 101.28125 316.054688 102.488281 319.859375 101.898438 C 323.667969 101.316406 326.988281 98.996094 328.855469 95.628906 C 359.066406 40.976562 422.394531 13.664062 482.875 29.179688 C 543.359375 44.703125 585.703125 99.136719 585.867188 161.582031 L 585.867188 162.582031 C 585.664062 168.820312 590.101562 174.242188 596.261719 175.273438 C 628.027344 180.839844 650.300781 209.71875 647.597656 241.859375 C 644.894531 273.996094 618.117188 298.757812 585.867188 298.941406 Z M 585.867188 298.941406 " style=" stroke:none;fill-rule:nonzero;fill:rgb(0%,0%,0%);fill-opacity:1;" />
<path d="M 560.949219 398.621094 L 585.867188 398.621094 L 585.867188 423.539062 L 560.949219 423.539062 Z M 560.949219 398.621094 " style=" stroke:none;fill-rule:nonzero;fill:rgb(0%,0%,0%);fill-opacity:1;" />
<path d="M 560.949219 348.78125 L 585.867188 348.78125 L 585.867188 373.699219 L 560.949219 373.699219 Z M 560.949219 348.78125 " style=" stroke:none;fill-rule:nonzero;fill:rgb(0%,0%,0%);fill-opacity:1;" />
</g>
</svg>