<svg id="Capa_1" enable-background="new 0 0 512 512" height="512" viewBox="0 0 512 512" width="512" xmlns="http://www.w3.org/2000/svg"><g id="XMLID_8_"><g id="XMLID_2408_"><g id="XMLID_2352_"><g id="XMLID_1048_"><path id="XMLID_1049_" d="m256 472c-2.63 0-5.21 1.07-7.07 2.93s-2.93 4.44-2.93 7.07 1.069 5.21 2.93 7.07 4.44 2.93 7.07 2.93 5.21-1.07 7.069-2.93c1.86-1.86 2.931-4.44 2.931-7.07s-1.07-5.21-2.931-7.07c-1.859-1.86-4.439-2.93-7.069-2.93z"/><path id="XMLID_1353_" d="m64 68c-2.63 0-5.21 1.07-7.07 2.93-1.861 1.86-2.93 4.44-2.93 7.07s1.069 5.21 2.93 7.07 4.44 2.93 7.07 2.93 5.21-1.07 7.069-2.93c1.861-1.86 2.931-4.44 2.931-7.07s-1.07-5.21-2.931-7.07c-1.859-1.86-4.439-2.93-7.069-2.93z"/><path id="XMLID_1354_" d="m112 68c-2.63 0-5.21 1.07-7.07 2.93s-2.93 4.44-2.93 7.07 1.069 5.21 2.93 7.07 4.44 2.93 7.07 2.93 5.21-1.07 7.069-2.93c1.861-1.86 2.931-4.44 2.931-7.07s-1.07-5.21-2.931-7.07c-1.859-1.86-4.439-2.93-7.069-2.93z"/><path id="XMLID_1358_" d="m160 68c-2.63 0-5.21 1.07-7.07 2.93s-2.93 4.44-2.93 7.07 1.069 5.21 2.93 7.07 4.44 2.93 7.07 2.93 5.21-1.07 7.069-2.93c1.861-1.86 2.931-4.44 2.931-7.07s-1.07-5.21-2.931-7.07c-1.859-1.86-4.439-2.93-7.069-2.93z"/><path id="XMLID_1393_" d="m482 20h-452c-16.542 0-30 13.458-30 30v412c0 16.542 13.458 30 30 30h181c5.522 0 10-4.477 10-10s-4.478-10-10-10h-181c-5.514 0-10-4.486-10-10v-326h472v326c0 5.514-4.486 10-10 10h-181c-5.522 0-10 4.477-10 10s4.478 10 10 10h181c16.542 0 30-13.458 30-30v-412c0-16.542-13.458-30-30-30zm-462 96v-66c0-5.514 4.486-10 10-10h452c5.514 0 10 4.486 10 10v66z"/><path id="XMLID_2006_" d="m404.833 415.194v-168.876c0-5.523-4.478-10-10-10h-36.789v-6.301c0-26.032-21.179-47.21-47.211-47.21-26.031 0-47.21 21.179-47.21 47.21v6.301h-36.79c-2.931 0-5.56 1.269-7.389 3.279-7.317-5.531-16.419-8.818-26.277-8.818-24.078 0-43.667 19.589-43.667 43.667v4.749h-32.333c-5.522 0-10 4.477-10 10v126c0 5.523 4.478 10 10 10h277.666c5.522-.001 10-4.478 10-10.001zm-121.21-185.177c0-15.004 12.206-27.21 27.21-27.21s27.211 12.207 27.211 27.21v6.301h-54.421zm-114.123 44.428c0-13.05 10.617-23.667 23.667-23.667s23.666 10.617 23.666 23.667v4.749h-47.333zm-42.333 24.749h22.333v3.667c0 5.523 4.478 10 10 10s10-4.477 10-10v-3.667h47.333v3.667c0 5.523 4.478 10 10 10s10-4.477 10-10v-3.667h22.334v106h-132zm257.666 106h-105.666v-116c0-5.523-4.478-10-10-10h-32.334v-22.876h148z"/></g></g></g></g></svg>