<svg xmlns="http://www.w3.org/2000/svg" height="750pt" version="1.1" viewBox="-6 0 750 750" width="750pt">
<g id="surface1">
<path d="M 650 0 L 100 0 C 72.386719 0 50 22.386719 50 50 L 50 400 C 50 427.613281 72.386719 450 100 450 L 296.488281 450 L 277.738281 525 L 250 525 L 250 550 L 500 550 L 500 525 L 472.261719 525 L 453.511719 450 L 650 450 C 677.613281 450 700 427.613281 700 400 L 700 50 C 700 22.386719 677.613281 0 650 0 Z M 75 50 C 75 36.191406 86.191406 25 100 25 L 650 25 C 663.808594 25 675 36.191406 675 50 L 675 350 L 75 350 Z M 446.488281 525 L 303.511719 525 L 322.261719 450 L 427.738281 450 Z M 675 400 C 675 413.808594 663.808594 425 650 425 L 100 425 C 86.191406 425 75 413.808594 75 400 L 75 375 L 675 375 Z M 675 400 " style=" stroke:none;fill-rule:nonzero;fill:rgb(0%,0%,0%);fill-opacity:1;" />
<path d="M 87.5 575 C 80.59375 575 75 580.59375 75 587.5 L 75 737.5 C 75 744.40625 80.59375 750 87.5 750 L 487.5 750 C 494.40625 750 500 744.40625 500 737.5 L 500 587.5 C 500 580.59375 494.40625 575 487.5 575 Z M 475 725 L 100 725 L 100 600 L 475 600 Z M 475 725 " style=" stroke:none;fill-rule:nonzero;fill:rgb(0%,0%,0%);fill-opacity:1;" />
<path d="M 125 675 L 150 675 L 150 700 L 125 700 Z M 125 675 " style=" stroke:none;fill-rule:nonzero;fill:rgb(0%,0%,0%);fill-opacity:1;" />
<path d="M 425 675 L 450 675 L 450 700 L 425 700 Z M 425 675 " style=" stroke:none;fill-rule:nonzero;fill:rgb(0%,0%,0%);fill-opacity:1;" />
<path d="M 125 625 L 150 625 L 150 650 L 125 650 Z M 125 625 " style=" stroke:none;fill-rule:nonzero;fill:rgb(0%,0%,0%);fill-opacity:1;" />
<path d="M 175 625 L 200 625 L 200 650 L 175 650 Z M 175 625 " style=" stroke:none;fill-rule:nonzero;fill:rgb(0%,0%,0%);fill-opacity:1;" />
<path d="M 225 625 L 250 625 L 250 650 L 225 650 Z M 225 625 " style=" stroke:none;fill-rule:nonzero;fill:rgb(0%,0%,0%);fill-opacity:1;" />
<path d="M 275 625 L 300 625 L 300 650 L 275 650 Z M 275 625 " style=" stroke:none;fill-rule:nonzero;fill:rgb(0%,0%,0%);fill-opacity:1;" />
<path d="M 375 625 L 400 625 L 400 650 L 375 650 Z M 375 625 " style=" stroke:none;fill-rule:nonzero;fill:rgb(0%,0%,0%);fill-opacity:1;" />
<path d="M 325 625 L 350 625 L 350 650 L 325 650 Z M 325 625 " style=" stroke:none;fill-rule:nonzero;fill:rgb(0%,0%,0%);fill-opacity:1;" />
<path d="M 425 625 L 450 625 L 450 650 L 425 650 Z M 425 625 " style=" stroke:none;fill-rule:nonzero;fill:rgb(0%,0%,0%);fill-opacity:1;" />
<path d="M 225 675 L 350 675 L 350 700 L 225 700 Z M 225 675 " style=" stroke:none;fill-rule:nonzero;fill:rgb(0%,0%,0%);fill-opacity:1;" />
<path d="M 175 675 L 200 675 L 200 700 L 175 700 Z M 175 675 " style=" stroke:none;fill-rule:nonzero;fill:rgb(0%,0%,0%);fill-opacity:1;" />
<path d="M 375 675 L 400 675 L 400 700 L 375 700 Z M 375 675 " style=" stroke:none;fill-rule:nonzero;fill:rgb(0%,0%,0%);fill-opacity:1;" />
<path d="M 575 625 L 600 625 L 600 662.5 L 575 662.5 Z M 575 625 " style=" stroke:none;fill-rule:nonzero;fill:rgb(0%,0%,0%);fill-opacity:1;" />
<path d="M 37.5 637.5 L 50 637.5 L 50 612.5 L 37.5 612.5 C 30.59375 612.5 25 606.90625 25 600 L 25 512.5 C 25 505.59375 30.59375 500 37.5 500 L 262.5 500 L 262.5 475 L 37.5 475 C 16.792969 475 0 491.792969 0 512.5 L 0 600 C 0 620.707031 16.792969 637.5 37.5 637.5 Z M 37.5 637.5 " style=" stroke:none;fill-rule:nonzero;fill:rgb(0%,0%,0%);fill-opacity:1;" />
<path d="M 612.5 550 L 700 550 C 720.707031 550 737.5 533.207031 737.5 512.5 C 737.5 491.792969 720.707031 475 700 475 L 487.5 475 L 487.5 500 L 700 500 C 706.90625 500 712.5 505.59375 712.5 512.5 C 712.5 519.40625 706.90625 525 700 525 L 612.5 525 C 591.792969 525 575 541.792969 575 562.5 L 575 576.25 C 545.917969 582.230469 525.039062 607.8125 525 637.5 L 525 687.5 C 525 722.015625 552.984375 750 587.5 750 C 622.015625 750 650 722.015625 650 687.5 L 650 637.5 C 649.960938 607.8125 629.082031 582.230469 600 576.25 L 600 562.5 C 600 555.59375 605.59375 550 612.5 550 Z M 625 637.5 L 625 687.5 C 625 708.207031 608.207031 725 587.5 725 C 566.792969 725 550 708.207031 550 687.5 L 550 637.5 C 550 616.792969 566.792969 600 587.5 600 C 608.207031 600 625 616.792969 625 637.5 Z M 625 637.5 " style=" stroke:none;fill-rule:nonzero;fill:rgb(0%,0%,0%);fill-opacity:1;" />
<path d="M 625 50 L 575 50 C 568.09375 50 562.5 55.59375 562.5 62.5 L 562.5 112.5 C 562.5 119.40625 568.09375 125 575 125 L 625 125 C 631.90625 125 637.5 119.40625 637.5 112.5 L 637.5 62.5 C 637.5 55.59375 631.90625 50 625 50 Z M 612.5 100 L 587.5 100 L 587.5 75 L 612.5 75 Z M 612.5 100 " style=" stroke:none;fill-rule:nonzero;fill:rgb(0%,0%,0%);fill-opacity:1;" />
<path d="M 525 50 L 475 50 C 468.09375 50 462.5 55.59375 462.5 62.5 L 462.5 112.5 C 462.5 119.40625 468.09375 125 475 125 L 525 125 C 531.90625 125 537.5 119.40625 537.5 112.5 L 537.5 62.5 C 537.5 55.59375 531.90625 50 525 50 Z M 512.5 100 L 487.5 100 L 487.5 75 L 512.5 75 Z M 512.5 100 " style=" stroke:none;fill-rule:nonzero;fill:rgb(0%,0%,0%);fill-opacity:1;" />
<path d="M 625 150 L 575 150 C 568.09375 150 562.5 155.59375 562.5 162.5 L 562.5 212.5 C 562.5 219.40625 568.09375 225 575 225 L 625 225 C 631.90625 225 637.5 219.40625 637.5 212.5 L 637.5 162.5 C 637.5 155.59375 631.90625 150 625 150 Z M 612.5 200 L 587.5 200 L 587.5 175 L 612.5 175 Z M 612.5 200 " style=" stroke:none;fill-rule:nonzero;fill:rgb(0%,0%,0%);fill-opacity:1;" />
<path d="M 525 150 L 475 150 C 468.09375 150 462.5 155.59375 462.5 162.5 L 462.5 212.5 C 462.5 219.40625 468.09375 225 475 225 L 525 225 C 531.90625 225 537.5 219.40625 537.5 212.5 L 537.5 162.5 C 537.5 155.59375 531.90625 150 525 150 Z M 512.5 200 L 487.5 200 L 487.5 175 L 512.5 175 Z M 512.5 200 " style=" stroke:none;fill-rule:nonzero;fill:rgb(0%,0%,0%);fill-opacity:1;" />
<path d="M 625 250 L 575 250 C 568.09375 250 562.5 255.59375 562.5 262.5 L 562.5 312.5 C 562.5 319.40625 568.09375 325 575 325 L 625 325 C 631.90625 325 637.5 319.40625 637.5 312.5 L 637.5 262.5 C 637.5 255.59375 631.90625 250 625 250 Z M 612.5 300 L 587.5 300 L 587.5 275 L 612.5 275 Z M 612.5 300 " style=" stroke:none;fill-rule:nonzero;fill:rgb(0%,0%,0%);fill-opacity:1;" />
<path d="M 525 250 L 475 250 C 468.09375 250 462.5 255.59375 462.5 262.5 L 462.5 312.5 C 462.5 319.40625 468.09375 325 475 325 L 525 325 C 531.90625 325 537.5 319.40625 537.5 312.5 L 537.5 262.5 C 537.5 255.59375 531.90625 250 525 250 Z M 512.5 300 L 487.5 300 L 487.5 275 L 512.5 275 Z M 512.5 300 " style=" stroke:none;fill-rule:nonzero;fill:rgb(0%,0%,0%);fill-opacity:1;" />
<path d="M 112.5 87.5 L 112.5 125 L 137.5 125 L 137.5 87.5 L 175 87.5 L 175 62.5 L 137.5 62.5 C 123.691406 62.5 112.5 73.691406 112.5 87.5 Z M 112.5 87.5 " style=" stroke:none;fill-rule:nonzero;fill:rgb(0%,0%,0%);fill-opacity:1;" />
</g>
</svg>