<svg id="Capa_1" enable-background="new 0 0 512 512" height="512" viewBox="0 0 512 512" width="512" xmlns="http://www.w3.org/2000/svg"><g id="XMLID_413_"><g id="XMLID_1299_"><path id="XMLID_1300_" d="m256 352c-2.63 0-5.21 1.07-7.07 2.93s-2.93 4.44-2.93 7.07 1.069 5.21 2.93 7.07 4.44 2.93 7.07 2.93 5.21-1.07 7.069-2.93c1.86-1.86 2.931-4.44 2.931-7.07s-1.07-5.21-2.931-7.07c-1.859-1.86-4.439-2.93-7.069-2.93z"/><path id="XMLID_2237_" d="m502 20h-492c-5.522 0-10 4.477-10 10v372c0 5.523 4.478 10 10 10h180.167v60h-54.167c-5.522 0-10 4.477-10 10s4.478 10 10 10h240c5.522 0 10-4.477 10-10s-4.478-10-10-10h-54.167v-60h180.167c5.522 0 10-4.477 10-10v-372c0-5.523-4.478-10-10-10zm-10 51c0 17.093-13.906 31-31 31s-31-13.907-31-31v-31h62zm-82 0c0 17.093-13.906 31-31 31s-31-13.907-31-31v-31h62zm-82 0c0 17.093-13.906 31-31 31s-31-13.907-31-31v-31h62zm-6.945 67.073c1.18 2.849 1.948 6.207 2.01 9.761h-51.481c-5.012 0-9.724 1.952-13.267 5.495l-88.831 88.809c-3.545 3.544-5.497 8.257-5.498 13.27 0 5.012 1.952 9.725 5.496 13.27l43.157 43.157h-192.641v-200.377c8.598 6.604 19.345 10.542 31 10.542 16.787 0 31.701-8.156 41-20.709 9.299 12.553 24.213 20.709 41 20.709s31.701-8.156 41-20.709c9.299 12.553 24.213 20.709 41 20.709s31.701-8.156 41-20.709c9.299 12.553 24.213 20.709 41 20.709 12.827 0 20.836 8.303 24.055 16.073zm-20.584 57.457c1.953 1.953 4.512 2.929 7.071 2.929s5.119-.977 7.071-2.929l13.397-13.398v41.594l-87.597 87.596-55.913-55.914 87.596-87.575h41.928l-13.553 13.554c-3.906 3.906-3.906 10.238 0 14.143zm-54.471-124.53c0 17.093-13.906 31-31 31s-31-13.907-31-31v-31h62zm-82 0c0 17.093-13.906 31-31 31s-31-13.907-31-31v-31h62zm-144-31h62v31c0 17.093-13.906 31-31 31s-31-13.907-31-31zm281.833 432h-91.666v-60h91.666zm-281.833-80v-60.167h338.368c5.522 0 10-4.477 10-10s-4.478-10-10-10h-90.182l74.33-74.33c3.543-3.544 5.494-8.256 5.494-13.268v-57.638c0-5.002-1.979-9.541-5.18-12.908.924-7.665-.133-15.628-3.298-23.27-2.968-7.166-7.448-13.221-13.003-17.878 4.387-3.128 8.265-6.924 11.47-11.251 9.3 12.554 24.214 20.71 41.001 20.71s31.701-8.156 41-20.709c9.299 12.553 24.213 20.709 41 20.709 11.655 0 22.402-3.938 31-10.542v200.376h-43.632c-5.522 0-10 4.477-10 10s4.478 10 10 10h43.632v60.166z"/><path id="XMLID_2347_" d="m403.37 311.83c-2.641 0-5.21 1.07-7.07 2.93s-2.93 4.44-2.93 7.07c0 2.64 1.069 5.21 2.93 7.08 1.86 1.86 4.44 2.92 7.07 2.92s5.21-1.06 7.069-2.92c1.86-1.87 2.931-4.45 2.931-7.08s-1.07-5.21-2.931-7.07c-1.859-1.86-4.439-2.93-7.069-2.93z"/></g></g></svg>