<svg id="Capa_1" enable-background="new 0 0 512 512" height="512" viewBox="0 0 512 512" width="512" xmlns="http://www.w3.org/2000/svg"><g id="XMLID_1633_"><g id="XMLID_1153_"><path id="XMLID_1155_" d="m173.041 60h58c5.523 0 10-4.477 10-10s-4.477-10-10-10h-58c-5.523 0-10 4.477-10 10s4.477 10 10 10z"/><path id="XMLID_1348_" d="m202.039 452c-2.63 0-5.21 1.07-7.07 2.93s-2.93 4.44-2.93 7.07 1.07 5.21 2.93 7.07 4.44 2.93 7.07 2.93 5.21-1.07 7.07-2.93 2.93-4.44 2.93-7.07-1.07-5.21-2.93-7.07-4.43-2.93-7.07-2.93z"/><path id="XMLID_1473_" d="m112.518 246h-22.546c-5.523 0-10 4.477-10 10v79.905c0 5.523 4.477 10 10 10h26.604c17.388 0 31.534-14.146 31.534-31.533 0-9.885-4.594-18.716-11.757-24.49 2.888-4.459 4.574-9.771 4.574-15.473-.001-15.665-12.745-28.409-28.409-28.409zm-12.546 20h12.545c4.636 0 8.408 3.772 8.408 8.408 0 4.681-3.772 8.489-8.408 8.489h-12.545zm16.604 59.905h-16.604v-23.007h12.545 4.058c6.36 0 11.534 5.147 11.534 11.474.001 6.359-5.173 11.533-11.533 11.533z"/><path id="XMLID_1475_" d="m290.177 346c5.522 0 10-4.477 10-10v-38.036l22.452-36.524c2.892-4.705 1.422-10.864-3.282-13.756-4.705-2.891-10.864-1.422-13.757 3.282l-15.415 25.077-15.547-25.281c-2.893-4.704-9.053-6.172-13.757-3.28-4.705 2.893-6.173 9.052-3.28 13.756l22.586 36.726v38.036c0 5.523 4.478 10 10 10z"/><path id="XMLID_1476_" d="m178.11 246c-5.523 0-10 4.477-10 10v58.455c0 10.92 5.199 19.779 15.453 26.33 5.401 3.451 11.492 5.206 18.103 5.215h.055c5.681 0 11.02-1.238 15.868-3.68 11.944-6.015 18.521-15.929 18.521-27.916v-58.404c0-5.523-4.477-10-10-10s-10 4.477-10 10v58.405c0 3.099-.893 6.717-7.518 10.053-2.067 1.042-4.347 1.534-6.898 1.542-2.782-.004-5.19-.681-7.363-2.068-5.181-3.31-6.221-6.08-6.221-9.477v-58.455c0-5.523-4.477-10-10-10z"/><path id="XMLID_1532_" d="m478.618 461.617-34.614-59.955 24.321-14.042c3.094-1.786 5-5.087 5-8.66s-1.906-6.874-5-8.66l-96.283-55.589v-35.889c0-5.523-4.478-10-10-10s-10 4.477-10 10v24.342l-2.582-1.491c-3.094-1.787-6.906-1.786-10 0s-5 5.087-5 8.66l-.001 101.667h-282.418v-242.027c8.363 6.292 18.753 10.027 30 10.027 16.338 0 30.87-7.878 40-20.035 9.13 12.156 23.662 20.035 40 20.035s30.87-7.878 40-20.035c9.13 12.156 23.662 20.035 40 20.035s30.87-7.878 40-20.035c9.13 12.156 23.661 20.035 40 20.035 11.247 0 21.637-3.735 30-10.027v18.849c0 5.523 4.478 10 10 10s10-4.477 10-10v-138.822c0-27.57-22.43-50-50-50h-240c-27.57 0-50 22.43-50 50v412c0 27.57 22.43 50 50 50h240c27.57 0 50-22.43 50-50v-3.448l27.971 48.448c1.326 2.297 3.51 3.973 6.072 4.659.852.228 1.721.341 2.588.341 1.74 0 3.467-.455 5-1.34l61.285-35.383c4.784-2.761 6.422-8.878 3.661-13.66zm-396.577-301.617c-16.542 0-30-13.458-30-30v-30h60v30c0 16.542-13.458 30-30 30zm80 0c-16.542 0-30-13.458-30-30v-30h60v30c0 16.542-13.458 30-30 30zm80 0c-16.542 0-30-13.458-30-30v-30h60.001v30c-.001 16.542-13.459 30-30.001 30zm80 0c-16.542 0-30-13.458-30-30v-30h60v30c0 16.542-13.458 30-30 30zm-240-140h240c16.542 0 30 13.458 30 30v30h-300v-30c0-16.542 13.458-30 30-30zm240 472h-240c-16.542 0-30-13.458-30-30v-30h282.418v15.587c0 3.573 1.906 6.874 5 8.66 3.094 1.787 6.906 1.786 10 0l2.583-1.491v7.244c-.001 16.542-13.459 30-30.001 30zm90.291-3.66-34.614-59.955c-1.853-3.208-5.213-5.001-8.67-5.001-1.696 0-3.415.432-4.99 1.341l-9.6 5.542.001-102.613 88.865 51.307-17.981 10.381c-2.297 1.326-3.973 3.51-4.659 6.072-.687 2.562-.327 5.292.999 7.588l34.614 59.955z"/><path id="XMLID_1549_" d="m362.039 223.82c-2.63 0-5.21 1.07-7.07 2.93s-2.93 4.44-2.93 7.07 1.069 5.21 2.93 7.07c1.86 1.86 4.44 2.93 7.07 2.93s5.21-1.07 7.069-2.93c1.86-1.86 2.931-4.44 2.931-7.07s-1.07-5.21-2.931-7.07c-1.859-1.86-4.439-2.93-7.069-2.93z"/></g></g></svg>