<svg viewBox="0 0 512.00099 512" xmlns="http://www.w3.org/2000/svg"><path d="m65.476562 200.367188h-17.855468v15.09375h112.203125v-15.09375h-17.855469l-4.996094-24.980469h70.472656v-175.386719h-119.75v15.09375h104.65625v105.125h-177.257812v-105.125h48.554688v-15.09375h-63.648438v175.386719h70.472656zm15.394532 0 4.996094-24.980469h35.710937l4.996094 24.980469zm-65.777344-40.074219v-24.980469h177.257812v24.980469zm0 0"/><path d="m47.152344 71.664062v-24.511718h16.496094v-15.09375h-31.589844v39.605468zm0 0"/><path d="m159.824219 88.160156h16.03125v15.09375h-16.03125zm0 0"/><path d="m159.824219 56.101562h16.03125v15.09375h-16.03125zm0 0"/><path d="m127.765625 88.160156h16.03125v15.09375h-16.03125zm0 0"/><path d="m512 39.605469v-39.605469h-207.445312v72.132812h-72.597657v15.09375h72.597657v88.160157h70.472656l-4.996094 24.976562h-17.855469v15.097657h48.554688v56.566406h15.09375v-56.566406h48.554687v-15.097657h-17.855468l-4.996094-24.976562h70.472656v-111.738281h-15.09375v56.570312h-177.257812v-105.125h177.257812v24.511719zm-126.574219 160.761719 4.996094-24.980469h35.714844l4.992187 24.980469zm111.480469-65.054688v24.980469h-177.257812v-24.980469zm0 0"/><path d="m351.707031 71.664062v-24.511718h16.496094v-15.09375h-31.589844v39.605468zm0 0"/><path d="m464.378906 88.160156h16.03125v15.09375h-16.03125zm0 0"/><path d="m464.378906 56.101562h16.03125v15.09375h-16.03125zm0 0"/><path d="m432.320312 88.160156h16.03125v15.09375h-16.03125zm0 0"/><path d="m63.648438 343.695312v-15.097656h-31.589844v39.605469h15.09375v-24.507813zm0 0"/><path d="m159.824219 384.699219h16.03125v15.097656h-16.03125zm0 0"/><path d="m159.824219 352.644531h16.03125v15.09375h-16.03125zm0 0"/><path d="m127.765625 384.699219h16.03125v15.097656h-16.03125zm0 0"/><path d="m456.363281 311.636719h40.542969v105.125h-177.257812v-105.125h112.671874v-15.09375h-127.765624v112.203125h-72.597657v15.09375h72.597657v48.089844h70.472656l-4.996094 24.976562h-17.855469v15.09375h112.203125v-15.09375h-17.855468l-4.996094-24.976562h70.472656v-175.390626h-55.636719zm-70.9375 185.269531 4.996094-24.976562h35.714844l4.992187 24.976562zm-65.777343-40.074219v-24.976562h177.257812v24.976562zm0 0"/><path d="m351.707031 368.203125v-24.507813h16.496094v-15.097656h-31.589844v39.605469zm0 0"/><path d="m464.378906 384.699219h16.03125v15.097656h-16.03125zm0 0"/><path d="m464.378906 352.644531h16.03125v15.09375h-16.03125zm0 0"/><path d="m432.320312 384.699219h16.03125v15.097656h-16.03125zm0 0"/><path d="m256 287.589844c19.257812 0 35.339844-13.816406 38.875-32.058594h25.242188v-15.09375h-25.242188c-3.535156-18.238281-19.617188-32.058594-38.875-32.058594s-35.339844 13.820313-38.875 32.058594h-25.242188v15.09375h25.242188c3.535156 18.242188 19.617188 32.058594 38.875 32.058594zm0-64.117188c13.515625 0 24.511719 10.996094 24.511719 24.511719s-10.996094 24.511719-24.511719 24.511719-24.511719-10.996094-24.511719-24.511719 10.996094-24.511719 24.511719-24.511719zm0 0"/><path d="m111.269531 231.957031h-15.09375v64.582031h-96.175781v31.59375h15.09375v-16.496093h177.257812v105.121093h-177.257812v-64.582031h-15.09375v119.753907h70.472656l-4.996094 24.976562h-17.855468v15.09375h112.203125v-15.09375h-17.855469l-4.996094-24.976562h70.472656v-175.390626h-96.175781zm-30.398437 264.949219 4.996094-24.976562h35.710937l4.996094 24.976562zm-65.777344-40.074219v-24.976562h177.257812v24.976562zm0 0"/><path d="m159.824219 240.4375h16.03125v15.09375h-16.03125zm0 0"/><path d="m127.765625 240.4375h16.03125v15.09375h-16.03125zm0 0"/><path d="m368.203125 240.4375h16.03125v15.09375h-16.03125zm0 0"/><path d="m336.144531 240.4375h16.03125v15.09375h-16.03125zm0 0"/><path d="m248.453125 175.855469h15.09375v16.027343h-15.09375zm0 0"/><path d="m248.453125 143.796875h15.09375v16.027344h-15.09375zm0 0"/><path d="m248.453125 111.738281h15.09375v16.027344h-15.09375zm0 0"/><path d="m248.453125 304.089844h15.09375v16.027344h-15.09375zm0 0"/><path d="m248.453125 336.144531h15.09375v16.03125h-15.09375zm0 0"/><path d="m248.453125 368.203125h15.09375v16.03125h-15.09375zm0 0"/></svg>