<svg id="Capa_1" enable-background="new 0 0 512 512" height="512" viewBox="0 0 512 512" width="512" xmlns="http://www.w3.org/2000/svg"><g id="XMLID_69_"><g id="XMLID_1149_"><path id="XMLID_1351_" d="m502 358h-10.003v-294c0-5.523-4.478-10-10-10h-452c-5.522 0-10 4.477-10 10v294h-9.997c-5.522 0-10 4.477-10 10v40c0 27.57 22.43 50 50 50h161c5.522 0 10-4.477 10-10s-4.478-10-10-10h-161c-16.542 0-30-13.458-30-30v-30h472v30c0 16.542-13.458 30-30 30h-161c-5.522 0-10 4.477-10 10s4.478 10 10 10h161c27.57 0 50-22.43 50-50v-40c0-5.523-4.478-10-10-10zm-30.003-256.333c0 15.256-12.411 27.667-27.667 27.667-15.255 0-27.666-12.411-27.666-27.667v-27.667h55.333zm-75.333 0c0 15.256-12.411 27.667-27.667 27.667s-27.667-12.411-27.667-27.667v-27.667h55.334zm-75.334 0c0 15.256-12.411 27.667-27.666 27.667h-.001c-15.255 0-27.666-12.411-27.666-27.667v-27.667h55.333zm-75.333 0c0 15.256-12.411 27.667-27.667 27.667-15.255 0-27.666-12.411-27.666-27.667v-27.667h55.333zm-75.333 0c0 15.256-12.411 27.667-27.667 27.667s-27.667-12.411-27.667-27.667v-27.667h55.334zm-130.667-27.667h55.333v27.667c0 15.256-12.411 27.667-27.666 27.667h-.001c-15.255 0-27.666-12.411-27.666-27.667zm0 284v-217.555c7.808 5.587 17.356 8.888 27.667 8.888 15.305 0 28.939-7.259 37.666-18.506 8.727 11.247 22.361 18.506 37.667 18.506 15.305 0 28.939-7.259 37.667-18.506 8.727 11.247 22.361 18.506 37.666 18.506s28.939-7.259 37.667-18.507c8.728 11.247 22.362 18.507 37.667 18.507s28.939-7.259 37.666-18.506c8.727 11.247 22.362 18.506 37.667 18.506s28.939-7.259 37.667-18.506c8.727 11.247 22.361 18.506 37.666 18.506 10.311 0 19.859-3.302 27.667-8.888v217.555z"/><path id="XMLID_1470_" d="m295.623 408c0-5.523-4.478-10-10-10h-59.5c-5.522 0-10 4.477-10 10s4.478 10 10 10h59.5c5.523 0 10-4.477 10-10z"/><path id="XMLID_1471_" d="m444.991 294h-69.512c-5.522 0-10 4.477-10 10s4.478 10 10 10h69.512c5.522 0 10-4.477 10-10s-4.477-10-10-10z"/><path id="XMLID_1534_" d="m454.958 256v-48c0-5.523-4.478-10-10-10h-138.958c-5.522 0-10 4.477-10 10v48c0 5.523 4.478 10 10 10h138.958c5.522 0 10-4.477 10-10zm-20-10h-118.958v-28h118.958z"/><path id="XMLID_1537_" d="m220.009 171.667h-128c-5.522 0-10 4.477-10 10v144c0 5.523 4.478 10 10 10h128c5.522 0 10-4.477 10-10v-144c0-5.523-4.478-10-10-10zm-118 20h54 54v24h-108zm0 44h44v80h-44zm64 80v-80h44v80z"/><path id="XMLID_1544_" d="m256 438c-2.63 0-5.21 1.07-7.07 2.93s-2.93 4.44-2.93 7.07 1.069 5.21 2.93 7.07 4.44 2.93 7.07 2.93 5.21-1.07 7.069-2.93c1.86-1.86 2.931-4.44 2.931-7.07s-1.07-5.21-2.931-7.07c-1.859-1.86-4.439-2.93-7.069-2.93z"/></g></g></svg>