<svg xmlns="http://www.w3.org/2000/svg" height="750pt" version="1.1" viewBox="0 -37 750 750" width="750pt">
<g id="surface1">
<path d="M 687.5 0 L 62.5 0 C 28 0.0429688 0.0429688 28 0 62.5 L 0 475 C 0.0429688 509.5 28 537.457031 62.5 537.5 L 297.5 537.5 L 277.039062 650 L 250 650 L 250 675 L 500 675 L 500 650 L 472.9375 650 L 452.5 537.5 L 687.5 537.5 C 722 537.457031 749.957031 509.5 750 475 L 750 62.5 C 749.957031 28 722 0.0429688 687.5 0 Z M 25 62.5 C 25 41.792969 41.792969 25 62.5 25 L 687.5 25 C 708.207031 25 725 41.792969 725 62.5 L 725 425 L 25 425 Z M 447.5 650 L 302.5 650 L 322.949219 537.5 L 427.101562 537.5 Z M 725 475 C 725 495.707031 708.207031 512.5 687.5 512.5 L 62.5 512.5 C 41.792969 512.5 25 495.707031 25 475 L 25 450 L 725 450 Z M 725 475 " style=" stroke:none;fill-rule:nonzero;fill:rgb(0%,0%,0%);fill-opacity:1;" />
<path d="M 397.890625 86.789062 C 392.78125 79.132812 384.199219 74.53125 375 74.53125 C 365.800781 74.53125 357.21875 79.132812 352.109375 86.789062 L 205.152344 307.25 C 199.53125 315.683594 199.003906 326.53125 203.785156 335.472656 C 208.570312 344.414062 217.882812 349.996094 228.027344 350 L 521.972656 350 C 532.117188 349.996094 541.429688 344.414062 546.214844 335.472656 C 550.996094 326.53125 550.46875 315.683594 544.847656 307.25 Z M 524.175781 323.75 C 523.769531 324.585938 522.90625 325.101562 521.972656 325.058594 L 228.027344 325.058594 C 227.105469 325.058594 226.257812 324.554688 225.824219 323.742188 C 225.390625 322.925781 225.4375 321.945312 225.953125 321.171875 L 372.910156 100.664062 C 373.378906 99.960938 374.160156 99.535156 375 99.535156 C 375.839844 99.535156 376.621094 99.960938 377.089844 100.664062 L 524.046875 321.113281 C 524.628906 321.878906 524.679688 322.929688 524.175781 323.75 Z M 524.175781 323.75 " style=" stroke:none;fill-rule:nonzero;fill:rgb(0%,0%,0%);fill-opacity:1;" />
<path d="M 362.5 162.5 L 387.5 162.5 L 387.5 250 L 362.5 250 Z M 362.5 162.5 " style=" stroke:none;fill-rule:nonzero;fill:rgb(0%,0%,0%);fill-opacity:1;" />
<path d="M 362.5 275 L 387.5 275 L 387.5 300 L 362.5 300 Z M 362.5 275 " style=" stroke:none;fill-rule:nonzero;fill:rgb(0%,0%,0%);fill-opacity:1;" />
</g>
</svg>