<svg id="Capa_1" enable-background="new 0 0 512 512" height="512" viewBox="0 0 512 512" width="512" xmlns="http://www.w3.org/2000/svg"><g id="XMLID_1114_"><g id="XMLID_74_"><path id="XMLID_75_" d="m364.341 312.594c-4.178 1.302-7.023 5.17-7.023 9.547v79.851c0 5.523 4.478 10 10 10s10-4.477 10-10v-47.772l35.764 51.788c2.938 4.246 7.84 6.055 12.487 4.601 4.744-1.481 7.809-5.922 7.809-11.409l-.747-77.304c-.054-5.49-4.521-9.903-9.998-9.903-.032 0-.065 0-.099 0-5.522.053-9.956 4.574-9.903 10.096l.472 48.753-37.556-54.383c-2.487-3.601-7.025-5.167-11.206-3.865z"/><path id="XMLID_1219_" d="m327.317 411.626c5.522 0 10-4.477 10-10s-4.478-10-10-10h-23.4v-19.635h20.938c5.522 0 10-4.477 10-10s-4.478-10-10-10h-20.938v-19.635h23.4c5.522 0 10-4.477 10-10s-4.478-10-10-10h-33.4c-5.522 0-10 4.477-10 10v79.27c0 5.523 4.478 10 10 10z"/><path id="XMLID_1226_" d="m263.917 344.568c0-17.962-14.813-32.576-33.019-32.576h-22.275c-5.522 0-10 4.477-10 10v80c0 5.523 4.478 10 10 10s10-4.477 10-10v-24.803c4.493-.023 9.441-.044 12.275-.044 18.206-.001 33.019-14.615 33.019-32.577zm-33.019 12.576c-2.825 0-7.708.021-12.175.043-.023-4.626-.045-9.727-.045-12.62 0-2.47-.013-7.744-.026-12.576h12.246c7.057 0 13.019 5.759 13.019 12.576s-5.962 12.577-13.019 12.577z"/><path id="XMLID_1272_" d="m78.623 361.991c0 27.57 22.43 50 50 50s50-22.43 50-50-22.43-50-50-50-50 22.43-50 50zm80 0c0 16.542-13.458 30-30 30s-30-13.458-30-30 13.458-30 30-30 30 13.458 30 30z"/><path id="XMLID_1275_" d="m469.288 227.736h-47.067l-138.211-138.212c8.58-7.695 13.99-18.857 13.99-31.263 0-23.159-18.841-42-42-42s-42 18.841-42 42c0 12.405 5.41 23.568 13.99 31.263l-138.211 138.212h-47.067c-23.552 0-42.712 20.552-42.712 45.813v176.374c0 25.261 19.16 45.813 42.712 45.813h168.288c5.522 0 10-4.477 10-10s-4.478-10-10-10h-168.288c-12.523 0-22.712-11.58-22.712-25.813v-176.374c0-14.233 10.188-25.813 22.712-25.813h426.576c12.523 0 22.712 11.58 22.712 25.813v176.374c0 14.233-10.188 25.813-22.712 25.813h-168.288c-5.522 0-10 4.477-10 10s4.478 10 10 10h168.288c23.552 0 42.712-20.552 42.712-45.813v-176.374c0-25.261-19.16-45.813-42.712-45.813zm-213.288-191.475c12.131 0 22 9.869 22 22s-9.869 22-22 22-22-9.869-22-22 9.869-22 22-22zm-9.391 62.929c3.022.693 6.162 1.072 9.391 1.072s6.369-.378 9.39-1.071l128.546 128.546h-275.873z"/><path id="XMLID_1320_" d="m61.069 274.669c-1.859-1.87-4.439-2.93-7.069-2.93s-5.21 1.06-7.07 2.93c-1.86 1.86-2.93 4.44-2.93 7.07s1.069 5.21 2.93 7.07c1.86 1.86 4.44 2.93 7.07 2.93s5.21-1.07 7.069-2.93c1.86-1.86 2.931-4.44 2.931-7.07s-1.07-5.21-2.931-7.07z"/><path id="XMLID_1321_" d="m458 291.739c2.63 0 5.21-1.07 7.069-2.93 1.86-1.87 2.931-4.44 2.931-7.07s-1.07-5.21-2.931-7.07c-1.859-1.87-4.439-2.93-7.069-2.93s-5.21 1.06-7.07 2.93c-1.86 1.86-2.93 4.43-2.93 7.07 0 2.63 1.069 5.21 2.93 7.07 1.86 1.86 4.44 2.93 7.07 2.93z"/><path id="XMLID_1324_" d="m54 431.739c-2.641 0-5.21 1.06-7.07 2.93-1.86 1.86-2.93 4.44-2.93 7.07s1.069 5.21 2.93 7.07c1.86 1.86 4.43 2.93 7.07 2.93 2.63 0 5.21-1.07 7.069-2.93 1.86-1.86 2.931-4.44 2.931-7.07s-1.07-5.21-2.931-7.07c-1.859-1.87-4.439-2.93-7.069-2.93z"/><path id="XMLID_1325_" d="m450.93 448.809c1.86 1.86 4.43 2.93 7.07 2.93s5.21-1.07 7.069-2.93c1.86-1.87 2.931-4.44 2.931-7.07s-1.07-5.21-2.931-7.07c-1.859-1.86-4.439-2.93-7.069-2.93s-5.21 1.07-7.07 2.93-2.93 4.43-2.93 7.07c0 2.629 1.069 5.209 2.93 7.07z"/><path id="XMLID_1327_" d="m256 475.739c-2.63 0-5.21 1.07-7.07 2.93s-2.93 4.43-2.93 7.07c0 2.63 1.069 5.21 2.93 7.07 1.86 1.86 4.44 2.93 7.07 2.93s5.21-1.07 7.069-2.93c1.86-1.87 2.931-4.44 2.931-7.07s-1.07-5.21-2.931-7.07c-1.859-1.86-4.439-2.93-7.069-2.93z"/></g></g></svg>