<svg id="Capa_1" enable-background="new 0 0 512 512" height="512" viewBox="0 0 512 512" width="512" xmlns="http://www.w3.org/2000/svg"><g id="XMLID_956_"><g id="XMLID_1636_"><g id="XMLID_1657_"><path id="XMLID_4122_" d="m169.402 512c-13.396 0-25.991-5.217-35.464-14.69l-119.249-119.249c-9.472-9.472-14.689-22.067-14.689-35.463s5.217-25.991 14.69-35.464l292.444-292.445c9.472-9.472 22.067-14.689 35.464-14.689s25.991 5.217 35.464 14.69l119.249 119.249c9.473 9.472 14.689 22.067 14.689 35.463s-5.217 25.991-14.69 35.464l-114.402 114.403c-3.905 3.905-10.237 3.905-14.143 0-3.905-3.905-3.905-10.237 0-14.143l114.402-114.402c5.696-5.695 8.832-13.267 8.832-21.321s-3.136-15.626-8.832-21.321l-119.248-119.25c-5.695-5.696-13.267-8.832-21.321-8.832s-15.626 3.136-21.321 8.832l-292.445 292.444c-5.696 5.695-8.832 13.267-8.832 21.322s3.136 15.626 8.832 21.321l119.25 119.249c5.695 5.696 13.267 8.832 21.321 8.832s15.626-3.136 21.321-8.832l114.472-114.473c3.905-3.904 10.237-3.904 14.143 0 3.905 3.905 3.905 10.237 0 14.143l-114.473 114.473c-9.472 9.472-22.067 14.689-35.464 14.689z"/></g><g id="XMLID_1656_"><path id="XMLID_4119_" d="m152.738 449.504c-2.652 0-5.196-1.054-7.071-2.929l-80.242-80.242c-1.875-1.875-2.929-4.419-2.929-7.071s1.054-5.196 2.929-7.071c2.563-2.562 3.974-5.969 3.974-9.593s-1.411-7.031-3.974-9.594c-3.905-3.905-3.905-10.237 0-14.142l253.437-253.437c3.904-3.905 10.237-3.905 14.142 0 2.563 2.563 5.97 3.974 9.594 3.974s7.031-1.411 9.593-3.974c1.875-1.875 4.419-2.929 7.071-2.929s5.196 1.054 7.071 2.929l80.242 80.242c1.875 1.875 2.929 4.419 2.929 7.071s-1.054 5.196-2.929 7.071c-2.563 2.562-3.974 5.969-3.974 9.593s1.411 7.031 3.974 9.594c3.905 3.905 3.905 10.237 0 14.142l-253.437 253.437c-3.904 3.905-10.237 3.905-14.142 0-2.563-2.563-5.97-3.974-9.594-3.974s-7.031 1.411-9.593 3.974c-1.875 1.875-4.418 2.929-7.071 2.929zm16.664-26.903c5.524 0 10.845 1.326 15.599 3.826l241.426-241.426c-2.5-4.754-3.826-10.075-3.826-15.599s1.326-10.845 3.826-15.599l-68.231-68.231c-4.754 2.5-10.074 3.826-15.599 3.826s-10.845-1.326-15.599-3.826l-241.425 241.427c2.5 4.754 3.826 10.075 3.826 15.599s-1.326 10.845-3.826 15.599l68.231 68.231c4.754-2.501 10.074-3.827 15.598-3.827z"/></g><g id="XMLID_1649_"><path id="XMLID_4115_" d="m256 306.153c-13.396 0-25.991-5.216-35.464-14.689s-14.689-22.068-14.689-35.464 5.216-25.991 14.689-35.464 22.067-14.689 35.464-14.689 25.991 5.216 35.464 14.689 14.689 22.067 14.689 35.464-5.216 25.991-14.689 35.464-22.068 14.689-35.464 14.689zm0-80.306c-8.054 0-15.626 3.136-21.321 8.832-5.695 5.695-8.832 13.267-8.832 21.321s3.136 15.626 8.832 21.321c5.695 5.695 13.267 8.832 21.321 8.832s15.626-3.136 21.321-8.832c5.695-5.695 8.832-13.267 8.832-21.321s-3.136-15.626-8.832-21.321c-5.695-5.696-13.267-8.832-21.321-8.832z"/></g><g id="XMLID_1647_"><path id="XMLID_4111_" d="m341.888 202.181c-8.216 0-16.432-3.127-22.687-9.382-12.509-12.51-12.509-32.865 0-45.375 12.511-12.509 32.866-12.508 45.375 0 12.509 12.51 12.509 32.865 0 45.375-6.256 6.255-14.472 9.382-22.688 9.382zm0-44.153c-3.228 0-6.263 1.257-8.545 3.54-2.283 2.282-3.54 5.317-3.54 8.544 0 3.228 1.257 6.263 3.54 8.545 2.282 2.283 5.317 3.54 8.545 3.54s6.262-1.257 8.544-3.54c2.283-2.282 3.54-5.317 3.54-8.545s-1.257-6.262-3.54-8.544c-2.282-2.283-5.316-3.54-8.544-3.54z"/></g><g id="XMLID_1637_"><path id="XMLID_4107_" d="m170.112 373.957c-8.216 0-16.433-3.127-22.688-9.382-12.509-12.51-12.509-32.865 0-45.375 12.51-12.508 32.865-12.509 45.375 0 12.509 12.51 12.509 32.865 0 45.375-6.255 6.255-14.471 9.382-22.687 9.382zm0-44.153c-3.228 0-6.262 1.257-8.544 3.54-2.283 2.282-3.54 5.317-3.54 8.545s1.257 6.262 3.54 8.544c2.282 2.283 5.317 3.54 8.544 3.54 3.228 0 6.263-1.257 8.545-3.54 2.283-2.282 3.54-5.317 3.54-8.544 0-3.228-1.257-6.263-3.54-8.545-2.282-2.283-5.317-3.54-8.545-3.54z"/></g></g><g id="XMLID_955_"><path id="XMLID_4106_" d="m344.02 354.02c-2.64 0-5.21-1.07-7.07-2.93-1.87-1.86-2.93-4.44-2.93-7.07s1.06-5.21 2.93-7.07c1.86-1.87 4.43-2.93 7.07-2.93 2.63 0 5.21 1.06 7.07 2.93 1.86 1.86 2.93 4.43 2.93 7.07 0 2.63-1.07 5.21-2.93 7.07s-4.44 2.93-7.07 2.93z"/></g></g></svg>