<svg id="Capa_1" enable-background="new 0 0 512 512" height="512" viewBox="0 0 512 512" width="512" xmlns="http://www.w3.org/2000/svg"><g id="XMLID_1206_"><g id="XMLID_1783_"><path id="XMLID_1885_" d="m169.333 119.334h-40c-5.523 0-10 4.478-10 10v40c0 5.522 4.477 10 10 10h40c5.523 0 10-4.478 10-10v-40c0-5.522-4.477-10-10-10zm-10 40h-20v-20h20z"/><path id="XMLID_1889_" d="m382.667 119.334h-40c-5.523 0-10 4.478-10 10v40c0 5.522 4.477 10 10 10h40c5.523 0 10-4.478 10-10v-40c0-5.522-4.478-10-10-10zm-10 40h-20v-20h20z"/><path id="XMLID_1892_" d="m424.667 374.682h-40c-5.523 0-10 4.478-10 10v40c0 5.522 4.477 10 10 10h40c5.523 0 10-4.478 10-10v-40c0-5.522-4.478-10-10-10zm-10 40h-20v-20h20z"/><path id="XMLID_1893_" d="m302.667 434.668c5.523 0 10-4.478 10-10v-82c0-5.522-4.477-10-10-10s-10 4.478-10 10v82c0 5.523 4.477 10 10 10z"/><path id="XMLID_1894_" d="m256 332.668c-5.523 0-10 4.478-10 10v42.014c0 5.522 4.477 10 10 10s10-4.478 10-10v-42.014c0-5.522-4.477-10-10-10z"/><path id="XMLID_1895_" d="m424.667 332.668h-82c-5.523 0-10 4.478-10 10v82c0 5.522 4.477 10 10 10s10-4.478 10-10v-72h72c5.523 0 10-4.478 10-10s-4.478-10-10-10z"/><path id="XMLID_1900_" d="m129.333 392.668h40c5.523 0 10-4.478 10-10v-40c0-5.522-4.477-10-10-10h-40c-5.523 0-10 4.478-10 10v40c0 5.523 4.478 10 10 10zm10-40h20v20h-20z"/><path id="XMLID_1901_" d="m256 179.334c5.523 0 10-4.478 10-10v-40c0-5.522-4.477-10-10-10s-10 4.478-10 10v40c0 5.523 4.477 10 10 10z"/><path id="XMLID_1902_" d="m424.67 312.671c2.63 0 5.2-1.07 7.07-2.93 1.86-1.86 2.93-4.44 2.93-7.07 0-2.64-1.07-5.21-2.93-7.07-1.86-1.87-4.44-2.93-7.07-2.93-2.64 0-5.21 1.06-7.07 2.93-1.87 1.86-2.93 4.431-2.93 7.07 0 2.63 1.06 5.21 2.93 7.07 1.86 1.86 4.44 2.93 7.07 2.93z"/><path id="XMLID_1903_" d="m302.669 312.668h79.998c5.523 0 10-4.478 10-10s-4.477-10-10-10h-79.998c-5.523 0-10 4.478-10 10s4.477 10 10 10z"/><path id="XMLID_1908_" d="m502 199.334h-13.333v-166c0-5.522-4.477-10-10-10h-177.667c-5.523 0-10 4.478-10 10s4.477 10 10 10h167.666v156h-36v-110c0-5.522-4.477-10-10-10h-120c-5.523 0-10 4.478-10 10v110h-73.333v-110c0-5.522-4.477-10-10-10h-120c-5.523 0-10 4.478-10 10v110h-36v-156h167.667c5.523 0 10-4.478 10-10s-4.477-10-10-10h-177.667c-5.523 0-10 4.478-10 10v166h-13.333c-5.523 0-10 4.478-10 10v46.667c0 5.522 4.477 10 10 10h13.333v212.667c0 5.522 4.477 10 10 10h445.333c5.523 0 10-4.478 10-10v-212.667h13.334c5.523 0 10-4.478 10-10v-46.667c0-5.522-4.477-10-10-10zm-189.333-100h100v100h-100zm-213.334 0h100v100h-100zm369.334 369.334h-425.334v-202.667h202.667v26.667h-156.667c-5.523 0-10 4.478-10 10v120c0 5.522 4.477 10 10 10h120c5.523 0 10-4.478 10-10v-110h36.667c5.523 0 10-4.478 10-10v-36.667h202.667zm-269.334-156v100h-100v-100zm292.667-66.667h-472v-26.667h472z"/><path id="XMLID_1925_" d="m256 43.332c2.63 0 5.21-1.061 7.07-2.931 1.86-1.859 2.93-4.439 2.93-7.069s-1.07-5.21-2.93-7.07-4.44-2.93-7.07-2.93-5.21 1.069-7.07 2.93c-1.86 1.86-2.93 4.44-2.93 7.07s1.07 5.21 2.93 7.069c1.86 1.87 4.44 2.931 7.07 2.931z"/></g></g></svg>