<svg viewBox="1 0 511.99998 511" xmlns="http://www.w3.org/2000/svg"><path d="m508.699219 215.21875c-5.769531-35.578125-18.753907-68.921875-38.59375-99.113281l-12.613281 8.289062c17.027343 25.914063 28.667968 54.304688 34.703124 84.484375h-23.152343l-7.324219-14.652344-29.394531-9.800781-24.53125 8.179688-28.417969-5.683594 7.484375-14.976563-37.765625-12.589843-17.925781 26.890625-36.546875 14.617187h-51.523438l-9.972656-9.972656 8.402344-16.792969-35.671875-26.757812-5.132813-10.261719 22.753906-30.339844v-30.597656l-25.738281-17.160156-5.871093-11.734375 6.167968-24.597656c18.769532-4.679688 38.246094-7.054688 57.964844-7.054688 74.941406 0 144.332031 33.992188 190.371094 93.257812l11.921875-9.261718c-23.425781-30.15625-53.808594-55.105469-87.855469-72.144532-35.714844-17.878906-74.21875-26.945312-114.4375-26.945312-22.542969 0-44.804688 2.917969-66.140625 8.667969-20.085937 5.34375-39.511719 13.171875-57.738281 23.261719l7.3125 13.207031c13.335937-7.382813 27.355468-13.457031 41.824218-18.167969l-5.390624 21.527344 10.160156 20.320312 22.351562 14.902344v17.488281l-25.332031 33.777344 10.898437 21.792969 28.441407 21.332031-7.628907 15.261719 22.085938 22.085937h60.683594l43.597656-17.4375 14.132812-21.199219 10.320313 3.441407-8.542969 17.082031 51.726563 10.347656 23.558593-7.855468 18.691407 6.230468 8.703125 17.40625h35c1.445312 10.859375 2.191406 21.773438 2.191406 32.527344 0 71.707031-31.46875 138.894531-86.410156 184.800781h-31.152344l-16.027344-16.027343h-30.074218l-16.9375-42.335938-39.0625 15.625 5.601562 14.015625 25.054688-10.019531 15.121093 37.808594h34.042969l16.03125 16.027343h17.355469c-39.46875 26.566407-86.429688 41.007813-134.449219 41.007813-13.03125 0-26.105469-1.046875-38.867188-3.117188l-2.414062 14.902344c13.554688 2.195312 27.441406 3.308594 41.28125 3.308594 58.125 0 114.792969-19.914063 159.898438-56.101563h.394531v-.3125c.574219-.464843 1.15625-.917969 1.730469-1.386719 59.722656-48.8125 93.976562-121.050781 93.976562-198.195312 0-13.648438-1.109375-27.53125-3.300781-41.28125zm0 0"/><path d="m193.617188 388.917969 12.558593-8.371094-14.761719-22.140625v-21.292969h-49.445312l-15.539062-77.699219-31.1875-15.59375v-39.589843l-62.253907-38.953125c18.316407-44.667969 50.402344-83.652344 90.90625-110.253906l-8.285156-12.617188c-44.871094 29.46875-80.03125 73.242188-99.007813 123.25-11.015624 28.980469-16.601562 59.546875-16.601562 90.84375 0 116.523438 78.65625 218.398438 191.277344 247.746094l3.804687-14.609375c-105.972656-27.613281-179.988281-123.480469-179.988281-233.136719 0-26.34375 4.214844-52.128906 12.515625-76.785156l52.535156 32.878906v40.558594l32.929688 16.460937 16.519531 82.59375h46.726562v10.765625zm0 0"/><path d="m323.433594 108.648438c7.90625-7.558594 12.246094-17.628907 12.246094-28.46875 0-21.839844-17.769532-39.605469-39.605469-39.605469-21.839844 0-39.605469 17.765625-39.605469 39.605469 0 10.839843 4.339844 20.914062 12.242188 28.46875l27.363281 41.296874zm-43.832032-10.480469c-5.183593-4.730469-8.039062-11.121094-8.039062-17.988281 0-13.515626 10.996094-24.511719 24.511719-24.511719s24.511719 10.996093 24.511719 24.511719c0 6.867187-2.855469 13.257812-8.039063 17.988281l-16.472656 24.449219zm0 0"/><path d="m288.058594 72.632812h16.03125v15.09375h-16.03125zm0 0"/><path d="m208.378906 360.691406c0 10.839844 4.339844 20.910156 12.246094 28.46875l27.355469 41.28125 27.367187-41.28125c7.90625-7.558594 12.242188-17.628906 12.242188-28.46875 0-21.839844-17.765625-39.605468-39.605469-39.605468-21.835937 0-39.605469 17.765624-39.605469 39.605468zm64.117188 0c0 6.867188-2.855469 13.257813-8.039063 17.988282l-15.152343 22.488281-1.3125 1.976562-16.480469-24.464843c-5.183594-4.730469-8.039063-11.121094-8.039063-17.988282 0-13.515625 10.996094-24.511718 24.511719-24.511718s24.511719 10.996093 24.511719 24.511718zm0 0"/><path d="m239.972656 353.144531h16.027344v15.09375h-16.027344zm0 0"/><path d="m87.695312 144.761719h16.027344v15.09375h-16.027344zm0 0"/><path d="m103.722656 128.734375h16.027344v15.09375h-16.027344zm0 0"/><path d="m151.808594 208.878906h16.03125v15.09375h-16.03125zm0 0"/><path d="m167.839844 224.910156h16.027344v15.09375h-16.027344zm0 0"/><path d="m456.363281 248.953125h16.03125v15.09375h-16.03125zm0 0"/><path d="m440.335938 281.011719h16.027343v15.09375h-16.027343zm0 0"/><path d="m247.984375 281.011719h16.03125v15.09375h-16.03125zm0 0"/><path d="m280.042969 281.011719h16.03125v15.09375h-16.03125zm0 0"/><path d="m384.234375 353.144531h16.027344v15.09375h-16.027344zm0 0"/><path d="m368.203125 369.171875h16.03125v15.09375h-16.03125zm0 0"/><path d="m368.203125 240.9375h16.03125v15.097656h-16.03125zm0 0"/><path d="m336.144531 248.953125h16.03125v15.09375h-16.03125zm0 0"/><path d="m239.972656 441.304688h16.027344v15.09375h-16.027344zm0 0"/><path d="m272.027344 441.304688h16.03125v15.09375h-16.03125zm0 0"/><path d="m207.910156 441.304688h16.03125v15.09375h-16.03125zm0 0"/><path d="m256 136.75h16.027344v15.09375h-16.027344zm0 0"/><path d="m320.117188 136.75h16.027343v15.09375h-16.027343zm0 0"/></svg>