<svg xmlns="http://www.w3.org/2000/svg" height="750pt" version="1.1" viewBox="0 0 750 750" width="750pt">
<g id="surface1">
<path d="M 225 37.5 L 225 187.5 C 225 208.207031 241.792969 225 262.5 225 L 334.746094 225 L 327.25 262.5 L 312.5 262.5 L 312.5 287.5 L 437.5 287.5 L 437.5 262.5 L 422.75 262.5 L 415.253906 225 L 487.5 225 C 508.207031 225 525 208.207031 525 187.5 L 525 37.5 C 525 16.792969 508.207031 0 487.5 0 L 262.5 0 C 241.792969 0 225 16.792969 225 37.5 Z M 397.246094 262.5 L 352.753906 262.5 L 360.25 225 L 389.773438 225 Z M 487.5 200 L 262.5 200 C 255.59375 200 250 194.40625 250 187.5 L 250 175 L 500 175 L 500 187.5 C 500 194.40625 494.40625 200 487.5 200 Z M 500 37.5 L 500 150 L 250 150 L 250 37.5 C 250 30.59375 255.59375 25 262.5 25 L 487.5 25 C 494.40625 25 500 30.59375 500 37.5 Z M 500 37.5 " style=" stroke:none;fill-rule:nonzero;fill:rgb(0%,0%,0%);fill-opacity:1;" />
<path d="M 212.5 750 L 212.5 725 L 197.75 725 L 190.253906 687.5 L 262.5 687.5 C 283.207031 687.5 300 670.707031 300 650 L 300 500 C 300 479.292969 283.207031 462.5 262.5 462.5 L 37.5 462.5 C 16.792969 462.5 0 479.292969 0 500 L 0 650 C 0 670.707031 16.792969 687.5 37.5 687.5 L 109.746094 687.5 L 102.25 725 L 87.5 725 L 87.5 750 Z M 37.5 487.5 L 262.5 487.5 C 269.40625 487.5 275 493.09375 275 500 L 275 612.5 L 25 612.5 L 25 500 C 25 493.09375 30.59375 487.5 37.5 487.5 Z M 25 650 L 25 637.5 L 275 637.5 L 275 650 C 275 656.90625 269.40625 662.5 262.5 662.5 L 37.5 662.5 C 30.59375 662.5 25 656.90625 25 650 Z M 127.753906 725 L 135.25 687.5 L 164.773438 687.5 L 172.273438 725 Z M 127.753906 725 " style=" stroke:none;fill-rule:nonzero;fill:rgb(0%,0%,0%);fill-opacity:1;" />
<path d="M 712.5 462.5 L 487.5 462.5 C 466.792969 462.5 450 479.292969 450 500 L 450 650 C 450 670.707031 466.792969 687.5 487.5 687.5 L 559.746094 687.5 L 552.25 725 L 537.5 725 L 537.5 750 L 662.5 750 L 662.5 725 L 647.75 725 L 640.253906 687.5 L 712.5 687.5 C 733.207031 687.5 750 670.707031 750 650 L 750 500 C 750 479.292969 733.207031 462.5 712.5 462.5 Z M 487.5 487.5 L 712.5 487.5 C 719.40625 487.5 725 493.09375 725 500 L 725 612.5 L 475 612.5 L 475 500 C 475 493.09375 480.59375 487.5 487.5 487.5 Z M 622.246094 725 L 577.753906 725 L 585.25 687.5 L 614.773438 687.5 Z M 712.5 662.5 L 487.5 662.5 C 480.59375 662.5 475 656.90625 475 650 L 475 637.5 L 725 637.5 L 725 650 C 725 656.90625 719.40625 662.5 712.5 662.5 Z M 712.5 662.5 " style=" stroke:none;fill-rule:nonzero;fill:rgb(0%,0%,0%);fill-opacity:1;" />
<path d="M 325 575 L 425 575 L 425 600 L 325 600 Z M 325 575 " style=" stroke:none;fill-rule:nonzero;fill:rgb(0%,0%,0%);fill-opacity:1;" />
<path d="M 387.5 312.5 L 362.5 312.5 L 362.5 362.5 L 137.5 362.5 C 130.59375 362.5 125 368.09375 125 375 L 125 437.5 L 150 437.5 L 150 387.5 L 587.5 387.5 L 587.5 437.5 L 612.5 437.5 L 612.5 375 C 612.5 368.09375 606.90625 362.5 600 362.5 L 387.5 362.5 Z M 387.5 312.5 " style=" stroke:none;fill-rule:nonzero;fill:rgb(0%,0%,0%);fill-opacity:1;" />
</g>
</svg>