<svg id="Capa_1" enable-background="new 0 0 512 512" height="512" viewBox="0 0 512 512" width="512" xmlns="http://www.w3.org/2000/svg"><g id="XMLID_2337_"><g id="XMLID_1736_"><path id="XMLID_2254_" d="m512 181.958v-24.958c0-1.075-.173-2.143-.514-3.163l-21.489-64.459v-28.378c0-18.748-15.252-34-34-34h-400c-18.748 0-34 15.252-34 34v28.376l-21.484 64.462c-.34 1.019-.513 2.088-.513 3.162v24.958c0 17.064 8.528 31.51 21.997 39.969v243.073h-11.997c-5.522 0-10 4.478-10 10s4.478 10 10 10h492c5.522 0 10-4.478 10-10s-4.478-10-10-10h-12.003v-243.069c13.473-8.458 22.003-22.906 22.003-39.973zm-51 28c-17.963 0-31-11.775-31-28v-14.958h62v14.958c0 16.225-13.037 28-31 28zm-51-28c0 16.225-13.037 28-31 28s-31-11.775-31-28v-14.958h62zm-82 0c0 16.225-13.037 28-31 28s-31-11.775-31-28v-14.958h62zm-82 0c0 16.225-13.037 28-31 28s-31-11.775-31-28v-14.958h62zm-82 0c0 16.225-13.037 28-31 28s-31-11.775-31-28v-14.958h62zm-108.003-134.958h400c7.72 0 14 6.28 14 14v20h-169c-5.522 0-10 4.478-10 10s4.478 10 10 10h171.793l15.335 46h-464.251l15.331-46h171.792c5.522 0 10-4.478 10-10s-4.478-10-10-10h-169v-20c0-7.72 6.28-14 14-14zm-35.997 120h62v14.958c0 16.225-13.037 28-31 28s-31-11.775-31-28zm287 298v-191.042h103v191.042zm162.997 0h-39.997v-201.042c0-5.522-4.478-10-10-10h-123c-5.522 0-10 4.478-10 10v201.042h-245.003v-235.738c2.91.449 5.913.696 9.003.696 17.181 0 31.861-7.208 41-18.75 9.139 11.542 23.819 18.75 41 18.75s31.861-7.208 41-18.75c9.139 11.542 23.819 18.75 41 18.75s31.861-7.208 41-18.75c9.139 11.542 23.819 18.75 41 18.75s31.861-7.208 41-18.75c9.139 11.542 23.819 18.75 41 18.75s31.861-7.208 41-18.75c9.139 11.542 23.819 18.75 41 18.75 3.088 0 6.088-.246 8.997-.695z"/><path id="XMLID_2267_" d="m256 101c2.63 0 5.21-1.07 7.069-2.931 1.861-1.859 2.931-4.439 2.931-7.069s-1.07-5.21-2.931-7.07c-1.859-1.861-4.439-2.93-7.069-2.93s-5.21 1.069-7.07 2.93c-1.87 1.86-2.93 4.44-2.93 7.07s1.06 5.21 2.93 7.069c1.86 1.861 4.44 2.931 7.07 2.931z"/><path id="XMLID_2271_" d="m195.384 290.037c-4.966-2.411-10.951-.342-13.363 4.627l-55.025 113.306c-2.413 4.968-.341 10.951 4.627 13.363 1.407.684 2.895 1.007 4.361 1.007 3.709 0 7.273-2.073 9.002-5.634l55.025-113.306c2.413-4.967.342-10.951-4.627-13.363z"/><path id="XMLID_2274_" d="m146.875 307.052c0-17.648-14.357-32.006-32.005-32.006s-32.006 14.357-32.006 32.006c0 17.647 14.357 32.005 32.006 32.005 17.648 0 32.005-14.358 32.005-32.005zm-32.005 12.005c-6.62 0-12.006-5.386-12.006-12.005 0-6.62 5.386-12.006 12.006-12.006 6.619 0 12.005 5.386 12.005 12.006 0 6.619-5.386 12.005-12.005 12.005z"/><path id="XMLID_2285_" d="m212.464 372.64c-17.648 0-32.006 14.357-32.006 32.005s14.357 32.006 32.006 32.006c17.647 0 32.005-14.357 32.005-32.006 0-17.648-14.358-32.005-32.005-32.005zm0 44.01c-6.62 0-12.006-5.386-12.006-12.006 0-6.619 5.386-12.005 12.006-12.005 6.619 0 12.005 5.386 12.005 12.005 0 6.621-5.386 12.006-12.005 12.006z"/></g></g></svg>