<svg xmlns="http://www.w3.org/2000/svg" height="748pt" version="1.1" viewBox="0 0 748 748.74975" width="748pt">
<g id="surface1">
<path d="M 50.292969 648.917969 L 182.035156 648.917969 L 153.957031 723.792969 L 137.644531 723.792969 L 137.644531 748.75 L 337.308594 748.75 L 337.308594 723.792969 L 321 723.792969 L 292.917969 648.917969 L 424.667969 648.917969 C 452.230469 648.917969 474.582031 626.566406 474.582031 599 L 474.582031 499.167969 L 449.625 499.167969 L 449.625 549.082031 L 25.332031 549.082031 L 25.332031 324.457031 C 25.332031 310.671875 36.507812 299.5 50.292969 299.5 L 287.394531 299.5 L 287.394531 274.539062 L 50.292969 274.539062 C 22.726562 274.539062 0.375 296.890625 0.375 324.457031 L 0.375 599 C 0.375 626.566406 22.726562 648.917969 50.292969 648.917969 Z M 294.34375 723.792969 L 180.609375 723.792969 L 208.6875 648.917969 L 266.265625 648.917969 Z M 449.625 574.042969 L 449.625 599 C 449.625 612.785156 438.445312 623.957031 424.667969 623.957031 L 50.292969 623.957031 C 36.507812 623.957031 25.332031 612.785156 25.332031 599 L 25.332031 574.042969 Z M 449.625 574.042969 " style=" stroke:none;fill-rule:nonzero;fill:rgb(0%,0%,0%);fill-opacity:1;" />
<path d="M 736.644531 74.875 C 674.011719 74.925781 612.769531 56.382812 560.6875 21.589844 L 531.425781 2.097656 C 527.230469 -0.699219 521.765625 -0.699219 517.570312 2.097656 L 488.308594 21.589844 C 436.226562 56.382812 374.984375 74.925781 312.351562 74.875 C 305.460938 74.875 299.875 80.464844 299.875 87.355469 L 299.875 186.851562 C 300.027344 326.902344 388.324219 451.699219 520.339844 498.453125 C 523.03125 499.40625 525.964844 499.40625 528.65625 498.453125 C 660.671875 451.699219 748.964844 326.902344 749.121094 186.851562 L 749.121094 87.355469 C 749.121094 80.464844 743.535156 74.875 736.644531 74.875 Z M 724.164062 186.851562 C 724.015625 314.710938 644.390625 428.996094 524.5 473.421875 C 404.605469 428.996094 324.980469 314.710938 324.832031 186.851562 L 324.832031 99.609375 C 388.105469 97.375 449.511719 77.582031 502.171875 42.425781 L 524.5 27.457031 L 546.824219 42.425781 C 599.484375 77.582031 660.890625 97.375 724.164062 99.609375 Z M 724.164062 186.851562 " style=" stroke:none;fill-rule:nonzero;fill:rgb(0%,0%,0%);fill-opacity:1;" />
<path d="M 531.402344 62.085938 C 527.214844 59.308594 521.78125 59.308594 517.59375 62.085938 L 516.011719 63.132812 C 472.832031 92.015625 423.96875 111.335938 372.714844 119.800781 C 368.710938 120.445312 364.675781 121.050781 360.648438 121.589844 C 354.4375 122.398438 349.792969 127.683594 349.792969 133.949219 L 349.792969 186.796875 C 349.710938 298.929688 416.472656 400.3125 519.507812 444.542969 C 522.652344 445.894531 526.21875 445.894531 529.367188 444.542969 C 632.425781 400.359375 699.242188 298.988281 699.203125 186.851562 L 699.203125 133.996094 C 699.203125 127.738281 694.5625 122.453125 688.359375 121.636719 C 632.738281 114.375 579.558594 94.34375 532.960938 63.121094 Z M 674.246094 186.851562 C 674.3125 287.0625 615.746094 378.046875 524.5 419.472656 C 433.25 378.046875 374.683594 287.0625 374.75 186.851562 L 374.75 144.761719 L 376.796875 144.417969 C 429.425781 135.730469 479.699219 116.3125 524.5 87.355469 C 569.867188 116.71875 620.878906 136.273438 674.246094 144.761719 Z M 674.246094 186.851562 " style=" stroke:none;fill-rule:nonzero;fill:rgb(0%,0%,0%);fill-opacity:1;" />
<path d="M 512.019531 124.789062 L 536.976562 124.789062 L 536.976562 149.75 L 512.019531 149.75 Z M 512.019531 124.789062 " style=" stroke:none;fill-rule:nonzero;fill:rgb(0%,0%,0%);fill-opacity:1;" />
<path d="M 512.019531 361.898438 L 536.976562 361.898438 L 536.976562 386.855469 L 512.019531 386.855469 Z M 512.019531 361.898438 " style=" stroke:none;fill-rule:nonzero;fill:rgb(0%,0%,0%);fill-opacity:1;" />
<path d="M 399.707031 162.230469 L 424.667969 162.230469 L 424.667969 187.1875 L 399.707031 187.1875 Z M 399.707031 162.230469 " style=" stroke:none;fill-rule:nonzero;fill:rgb(0%,0%,0%);fill-opacity:1;" />
<path d="M 412.183594 237.105469 L 437.144531 237.105469 L 437.144531 262.0625 L 412.183594 262.0625 Z M 412.183594 237.105469 " style=" stroke:none;fill-rule:nonzero;fill:rgb(0%,0%,0%);fill-opacity:1;" />
<path d="M 449.625 311.980469 L 474.582031 311.980469 L 474.582031 336.9375 L 449.625 336.9375 Z M 449.625 311.980469 " style=" stroke:none;fill-rule:nonzero;fill:rgb(0%,0%,0%);fill-opacity:1;" />
<path d="M 624.328125 162.230469 L 649.289062 162.230469 L 649.289062 187.1875 L 624.328125 187.1875 Z M 624.328125 162.230469 " style=" stroke:none;fill-rule:nonzero;fill:rgb(0%,0%,0%);fill-opacity:1;" />
<path d="M 611.851562 237.105469 L 636.8125 237.105469 L 636.8125 262.0625 L 611.851562 262.0625 Z M 611.851562 237.105469 " style=" stroke:none;fill-rule:nonzero;fill:rgb(0%,0%,0%);fill-opacity:1;" />
<path d="M 574.417969 311.980469 L 599.371094 311.980469 L 599.371094 336.9375 L 574.417969 336.9375 Z M 574.417969 311.980469 " style=" stroke:none;fill-rule:nonzero;fill:rgb(0%,0%,0%);fill-opacity:1;" />
<path d="M 100.207031 224.625 L 125.167969 224.625 L 125.167969 249.582031 L 100.207031 249.582031 Z M 100.207031 224.625 " style=" stroke:none;fill-rule:nonzero;fill:rgb(0%,0%,0%);fill-opacity:1;" />
<path d="M 100.207031 174.707031 L 125.167969 174.707031 L 125.167969 199.664062 L 100.207031 199.664062 Z M 100.207031 174.707031 " style=" stroke:none;fill-rule:nonzero;fill:rgb(0%,0%,0%);fill-opacity:1;" />
<path d="M 100.207031 124.789062 L 125.167969 124.789062 L 125.167969 149.75 L 100.207031 149.75 Z M 100.207031 124.789062 " style=" stroke:none;fill-rule:nonzero;fill:rgb(0%,0%,0%);fill-opacity:1;" />
<path d="M 100.207031 74.875 L 125.167969 74.875 L 125.167969 99.832031 L 100.207031 99.832031 Z M 100.207031 74.875 " style=" stroke:none;fill-rule:nonzero;fill:rgb(0%,0%,0%);fill-opacity:1;" />
<path d="M 150.125 74.875 L 175.082031 74.875 L 175.082031 99.832031 L 150.125 99.832031 Z M 150.125 74.875 " style=" stroke:none;fill-rule:nonzero;fill:rgb(0%,0%,0%);fill-opacity:1;" />
<path d="M 200.042969 74.875 L 225 74.875 L 225 99.832031 L 200.042969 99.832031 Z M 200.042969 74.875 " style=" stroke:none;fill-rule:nonzero;fill:rgb(0%,0%,0%);fill-opacity:1;" />
<path d="M 249.957031 74.875 L 274.917969 74.875 L 274.917969 99.832031 L 249.957031 99.832031 Z M 249.957031 74.875 " style=" stroke:none;fill-rule:nonzero;fill:rgb(0%,0%,0%);fill-opacity:1;" />
<path d="M 599.371094 474.207031 L 624.328125 474.207031 L 624.328125 499.167969 L 599.371094 499.167969 Z M 599.371094 474.207031 " style=" stroke:none;fill-rule:nonzero;fill:rgb(0%,0%,0%);fill-opacity:1;" />
<path d="M 599.371094 524.125 L 624.328125 524.125 L 624.328125 549.082031 L 599.371094 549.082031 Z M 599.371094 524.125 " style=" stroke:none;fill-rule:nonzero;fill:rgb(0%,0%,0%);fill-opacity:1;" />
<path d="M 599.371094 574.042969 L 624.328125 574.042969 L 624.328125 599 L 599.371094 599 Z M 599.371094 574.042969 " style=" stroke:none;fill-rule:nonzero;fill:rgb(0%,0%,0%);fill-opacity:1;" />
<path d="M 549.457031 574.042969 L 574.417969 574.042969 L 574.417969 599 L 549.457031 599 Z M 549.457031 574.042969 " style=" stroke:none;fill-rule:nonzero;fill:rgb(0%,0%,0%);fill-opacity:1;" />
<path d="M 499.542969 574.042969 L 524.5 574.042969 L 524.5 599 L 499.542969 599 Z M 499.542969 574.042969 " style=" stroke:none;fill-rule:nonzero;fill:rgb(0%,0%,0%);fill-opacity:1;" />
<path d="M 50.292969 349.414062 L 50.292969 386.855469 L 75.25 386.855469 L 75.25 349.414062 L 112.683594 349.414062 L 112.683594 324.457031 L 75.25 324.457031 C 61.464844 324.457031 50.292969 335.632812 50.292969 349.414062 Z M 50.292969 349.414062 " style=" stroke:none;fill-rule:nonzero;fill:rgb(0%,0%,0%);fill-opacity:1;" />
<path d="M 150.125 499.167969 L 175.082031 499.167969 L 175.082031 524.125 L 150.125 524.125 Z M 150.125 499.167969 " style=" stroke:none;fill-rule:nonzero;fill:rgb(0%,0%,0%);fill-opacity:1;" />
<path d="M 299.875 499.167969 L 324.832031 499.167969 L 324.832031 524.125 L 299.875 524.125 Z M 299.875 499.167969 " style=" stroke:none;fill-rule:nonzero;fill:rgb(0%,0%,0%);fill-opacity:1;" />
<path d="M 249.957031 499.167969 L 274.917969 499.167969 L 274.917969 524.125 L 249.957031 524.125 Z M 249.957031 499.167969 " style=" stroke:none;fill-rule:nonzero;fill:rgb(0%,0%,0%);fill-opacity:1;" />
<path d="M 200.042969 499.167969 L 225 499.167969 L 225 524.125 L 200.042969 524.125 Z M 200.042969 499.167969 " style=" stroke:none;fill-rule:nonzero;fill:rgb(0%,0%,0%);fill-opacity:1;" />
</g>
</svg>