<svg viewBox="-44 0 512 512.00099" xmlns="http://www.w3.org/2000/svg"><path d="m391.78125 191.882812h-15.09375v224.875h-136.714844v15.097657h151.808594zm0 0"/><path d="m55.167969 143.328125h200.835937v-15.09375h-160.761718v-16.964844h241.371093v32.058594h40.074219v24.511719h15.09375v-39.605469h-40.074219v-32.058594h-24.042969v-67.710937l-28.464843-28.464844h-83.269531v15.09375h77.019531l19.621093 19.625v61.457031h-16.960937v-43.667969l-20.453125-20.449218h-118.457031l-20.449219 20.449218v43.667969h-16.964844v-61.457031l19.621094-19.625h52.976562v-15.09375h-59.226562l-28.464844 28.464844v67.710937h-24.042968v32.058594h-40.074219v207.910156h15.09375zm96.175781-84.566406 11.609375-11.609375h105.953125l11.605469 11.609375v37.414062h-129.167969zm0 0"/><path d="m191.886719 416.757812h-136.71875v-56.566406h-15.09375v71.664063h151.8125zm0 0"/><path d="m272.03125 128.234375h16.027344v15.09375h-16.027344zm0 0"/><path d="m304.089844 128.234375h16.027344v15.09375h-16.027344zm0 0"/><path d="m120.21875 288.058594h15.097656c0-44.449219 36.160156-80.613282 80.613282-80.613282 44.449218 0 80.613281 36.164063 80.613281 80.613282h15.09375c0-52.773438-42.933594-95.707032-95.707031-95.707032-52.773438 0-95.710938 42.933594-95.710938 95.707032zm0 0"/><path d="m263.546875 288.058594c0-26.257813-21.359375-47.621094-47.621094-47.621094-26.257812 0-47.617187 21.363281-47.617187 47.621094h15.09375c0-17.933594 14.589844-32.527344 32.523437-32.527344 17.9375 0 32.527344 14.59375 32.527344 32.527344zm0 0"/><path d="m239.503906 312.101562c0-13-10.574218-23.578124-23.574218-23.578124s-23.578126 10.578124-23.578126 23.578124 10.578126 23.578126 23.578126 23.578126 23.574218-10.578126 23.574218-23.578126zm-23.574218 8.484376c-4.675782 0-8.484376-3.804688-8.484376-8.484376 0-4.675781 3.804688-8.480468 8.484376-8.480468 4.675781 0 8.480468 3.804687 8.480468 8.480468 0 4.679688-3.804687 8.484376-8.480468 8.484376zm0 0"/><path d="m208.382812 352.175781h15.09375v16.03125h-15.09375zm0 0"/><path d="m176.324219 352.175781h15.09375v16.03125h-15.09375zm0 0"/><path d="m240.441406 352.175781h15.09375v16.03125h-15.09375zm0 0"/><path d="m72.132812 207.910156h15.09375v-32.523437h24.511719v-15.09375h-39.605469zm0 0"/><path d="m344.160156 384.699219h16.03125v15.097656h-16.03125zm0 0"/><path d="m344.160156 352.644531h16.03125v15.09375h-16.03125zm0 0"/><path d="m312.101562 384.699219h16.03125v15.097656h-16.03125zm0 0"/><path d="m392.25 448.816406c-14.820312 0-27.28125 10.257813-30.671875 24.046875h-138.101563v-80.613281h-15.09375v80.613281h-146.117187c-3.394531-13.789062-15.855469-24.046875-30.671875-24.046875-17.421875 0-31.59375 14.171875-31.59375 31.59375 0 17.417969 14.171875 31.589844 31.59375 31.589844 14.816406 0 27.277344-10.257812 30.671875-24.042969h299.3125c3.390625 13.785157 15.855469 24.042969 30.671875 24.042969 17.417969 0 31.589844-14.171875 31.589844-31.589844 0-17.421875-14.171875-31.59375-31.589844-31.59375zm-360.65625 48.089844c-9.097656 0-16.5-7.402344-16.5-16.496094 0-9.097656 7.402344-16.5 16.5-16.5 9.09375 0 16.496094 7.402344 16.496094 16.5 0 9.09375-7.402344 16.496094-16.496094 16.496094zm360.65625 0c-7.777344 0-14.296875-5.414062-16.03125-12.667969v-7.660156c1.734375-7.253906 8.253906-12.667969 16.03125-12.667969 9.09375 0 16.496094 7.402344 16.496094 16.5 0 9.09375-7.402344 16.496094-16.496094 16.496094zm0 0"/></svg>