<svg viewBox="-64 1 511 511.99998" xmlns="http://www.w3.org/2000/svg"><path d="m369.171875 496.90625h-80.613281v15.09375h95.707031v-215.925781h-15.09375zm0 0"/><path d="m15.59375 151.808594h-15.09375v360.191406h264.011719v-15.09375h-248.917969zm0 0"/><path d="m299.699219 0h-299.199219v127.765625h15.09375v-112.671875h273.433594v80.148438h80.144531v176.789062h15.09375v-187.464844zm4.421875 25.765625 54.378906 54.378906h-54.378906zm0 0"/><path d="m47.652344 47.152344h24.511718v-15.09375h-39.605468v47.621094h15.09375zm0 0"/><path d="m32.558594 95.707031h15.09375v16.03125h-15.09375zm0 0"/><path d="m336.644531 464.847656h16.03125v15.09375h-16.03125zm0 0"/><path d="m304.585938 464.847656h16.03125v15.09375h-16.03125zm0 0"/><path d="m256.03125 120.0625-.589844-.3125c-18.855468-9.929688-40.3125-15.558594-63.058594-15.558594-22.75 0-44.203124 5.628906-63.058593 15.558594l-.589844.3125c-42.878906 22.855469-72.132813 68.027344-72.132813 119.910156 0 51.882813 29.253907 97.054688 72.132813 119.90625l.589844.3125c18.855469 9.929688 40.308593 15.5625 63.058593 15.5625s44.203126-5.632812 63.058594-15.5625l.589844-.3125c42.875-22.851562 72.132812-68.023437 72.132812-119.90625 0-51.882812-29.253906-97.054687-72.132812-119.910156zm-184.09375 127.457031h56.796875v49.023438h-42.933594c-7.878906-14.789063-12.769531-31.402344-13.863281-49.023438zm71.890625 0h41.007813v49.023438h-41.007813zm56.101563-79.210937v-48.78125c14.503906.898437 28.324218 4.371094 41.007812 9.96875v38.8125zm41.007812 15.09375v49.023437h-41.007812v-49.023437zm-56.101562-15.09375h-41.007813v-38.816406c12.683594-5.59375 26.5-9.066407 41.007813-9.964844zm0 15.09375v49.023437h-41.007813v-49.023437zm15.09375 64.117187h41.007812v49.023438h-41.007812zm56.101562 0h32.527344v-15.09375h-32.527344v-49.023437h42.929688c9 16.882812 14.109374 36.140625 14.109374 56.570312 0 20.429688-5.109374 39.683594-14.109374 56.570313h-42.929688zm33.394531-79.210937h-33.394531v-30.828125c12.980469 8.085937 24.320312 18.570312 33.394531 30.828125zm-160.691406-30.832032v30.828126h-16.5v15.09375h16.5v49.023437h-56.796875c2.484375-40.050781 24.589844-74.871094 56.796875-94.945313zm-33.394531 174.160157h33.394531v30.828125c-12.980469-8.089844-24.320313-18.574219-33.394531-30.828125zm48.488281 38.8125v-38.8125h41.007813v24.507812h15.09375v-24.507812h41.007812v38.8125c-14.867188 6.558593-31.292969 10.207031-48.554688 10.207031-17.265624 0-33.6875-3.648438-48.554687-10.207031zm112.203125-7.984375v-30.828125h33.394531c-9.074219 12.253906-20.414062 22.738281-33.394531 30.828125zm0 0"/><path d="m199.929688 392.246094h-15.09375v32.527344h-80.613282v15.09375h176.320313v-15.09375h-80.613281zm0 0"/><path d="m72.164062 424.773438h16.03125v15.09375h-16.03125zm0 0"/><path d="m296.574219 424.773438h16.027343v15.09375h-16.027343zm0 0"/></svg>