<svg id="Capa_1" enable-background="new 0 0 512 512" height="512" viewBox="0 0 512 512" width="512" xmlns="http://www.w3.org/2000/svg"><g id="XMLID_2058_"><g id="XMLID_1181_"><path id="XMLID_1401_" d="m449.35 299.222c8.08-6.708 13.236-16.824 13.236-28.122 0-20.149-16.393-36.543-36.543-36.543-10.447 0-19.877 4.414-26.543 11.466-6.666-7.052-16.096-11.466-26.543-11.466-20.15 0-36.543 16.394-36.543 36.543 0 5.953 1.44 11.572 3.975 16.543h-2.389c-5.523 0-10 4.478-10 10 0 23.452-19.08 42.532-42.533 42.532-21.585 0-42.09-8.189-57.738-23.06l-117.697-111.851c-21.546-20.476-48.411-33.63-77.305-38.17 3.459-18.887 18.594-33.739 37.629-36.757.666.991 1.43 1.936 2.305 2.812l40.773 40.773c3.542 3.542 8.253 5.494 13.267 5.496l125.612.015c10.347 0 18.766-8.418 18.766-18.765v-81.546c0-10.347-8.418-18.765-18.765-18.765h-125.627c-5.012 0-9.724 1.952-13.269 5.496l-40.756 40.757v.001c-1.108 1.108-2.028 2.332-2.8 3.619-29.26 3.42-52.7 26.173-57.135 55.116-.908-.017-1.816-.032-2.726-.032-5.523 0-10 4.478-10 10v119.361c0 19.721 10.348 37.061 25.891 46.907v99.593c0 5.522 4.477 10 10 10h47.108c4.963 0 9.175-3.64 9.895-8.551l12.113-82.696c10.604 4.306 20.665 9.959 29.824 16.895l67.663 51.235c20.086 15.209 45.022 23.585 70.216 23.585h50.79c5.523 0 10-4.478 10-10s-4.477-10-10-10h-50.79c-20.861 0-41.51-6.936-58.143-19.53l-2.911-2.204h278.72c-4.2 12.612-16.106 21.734-30.11 21.734h-46.767c-5.523 0-10 4.478-10 10s4.477 10 10 10h46.767c28.526 0 51.733-23.208 51.733-51.734 0-44.102-25.565-82.339-62.65-100.687zm-322.151-218.865h123.88v79.074l-123.864-.015-29.648-29.648h19.168c5.523 0 10-4.478 10-10s-4.477-10-10-10h-18.947zm298.844 174.2c9.122 0 16.543 7.421 16.543 16.543s-7.421 16.543-16.543 16.543h-16.543v-16.543c0-9.122 7.421-16.543 16.543-16.543zm-69.629 16.543c0-9.122 7.421-16.543 16.543-16.543s16.543 7.421 16.543 16.543v16.543h-16.543c-9.122 0-16.543-7.421-16.543-16.543zm-282.056 160.075h-28.467v-81.85c3.124.547 6.331.85 9.609.85 10.185 0 20.327 1.232 30.199 3.575zm72.547-70.297c-26.146-19.8-58.607-30.703-91.405-30.703-19.575 0-35.5-15.925-35.5-35.5v-108.967c28.538 2.258 55.311 14.149 76.255 34.054l117.697 111.852c19.381 18.418 44.779 28.562 71.516 28.562 31.078 0 56.933-22.788 61.733-52.532h32.901l-19.748 27.731c-3.204 4.499-2.154 10.743 2.345 13.946 1.759 1.253 3.786 1.855 5.792 1.855 3.125 0 6.203-1.461 8.154-4.2l22.854-32.094 22.854 32.094c1.951 2.739 5.029 4.2 8.154 4.2 2.007 0 4.033-.603 5.792-1.855 4.499-3.203 5.548-9.447 2.345-13.946l-18.055-25.354c37.705 8.746 66.619 40.672 70.865 79.888h-305.86c-.111 0-.218.013-.328.017z"/><path id="XMLID_1418_" d="m368.5 431.64c-2.63 0-5.21 1.07-7.07 2.93s-2.93 4.44-2.93 7.07 1.07 5.21 2.93 7.07c1.86 1.87 4.44 2.93 7.07 2.93s5.21-1.06 7.07-2.93c1.86-1.86 2.93-4.431 2.93-7.07 0-2.63-1.07-5.21-2.93-7.07s-4.44-2.93-7.07-2.93z"/></g></g></svg>