<svg viewBox="0 0 512 512.00002" xmlns="http://www.w3.org/2000/svg"><path d="m318.773438 176.320312c.578124-5.414062.875-10.933593.875-16.496093 0-88.125-71.695313-159.824219-159.824219-159.824219-25.101563 0-49.132813 5.660156-71.433594 16.828125l6.757813 13.496094c20.183593-10.105469 41.945312-15.230469 64.675781-15.230469 79.804687 0 144.730469 64.925781 144.730469 144.730469 0 7.667969-.613282 15.234375-1.832032 22.5625-9.644531 61.984375-57.882812 110.28125-120.042968 120.179687l-6.359376 1.011719v193.328125h-32.992187v-193.332031l-6.363281-1.011719c-70.617188-11.222656-121.871094-71.253906-121.871094-142.738281 0-49.519531 24.925781-95.082031 66.675781-121.886719l-8.15625-12.699219c-46.09375 29.589844-73.613281 79.902344-73.613281 134.585938 0 38.25 13.753906 75.242187 38.722656 104.164062 23.261719 26.945313 54.851563 45.367188 89.511719 52.339844v195.671875h63.179687v-195.671875c30.941407-6.199219 59.011719-21.238281 81.503907-43.742187 22.453125-22.460938 37.414062-50.429688 43.527343-81.167969h52.226563v24.507812h15.09375v-24.507812h113.140625v113.136719h-113.140625v-64.582032h-15.09375v64.582032h-104.65625v15.09375h247.984375v-143.328126zm0 0"/><path d="m258.097656 228.261719c14.050782-20.140625 21.480469-43.804688 21.480469-68.4375 0-66.03125-53.722656-119.75-119.753906-119.75s-119.75 53.71875-119.75 119.75 53.71875 119.753906 119.75 119.753906c31.515625 0 61.277343-12.152344 83.796875-34.214844l-10.5625-10.785156c-19.683594 19.285156-45.691406 29.902344-73.234375 29.902344-57.707031 0-104.65625-46.945313-104.65625-104.65625 0-57.707031 46.949219-104.65625 104.65625-104.65625s104.65625 46.949219 104.65625 104.65625c0 21.527343-6.488281 42.207031-18.761719 59.800781zm0 0"/><path d="m159.824219 88.160156c-39.515625 0-71.664063 32.148438-71.664063 71.664063h15.09375c0-31.191407 25.378906-56.570313 56.570313-56.570313zm0 0"/><path d="m231.488281 159.824219h-15.09375c0 31.191406-25.375 56.570312-56.570312 56.570312v15.09375c39.515625 0 71.664062-32.148437 71.664062-71.664062zm0 0"/><path d="m88.160156 175.855469h15.09375v16.027343h-15.09375zm0 0"/><path d="m120.21875 175.855469h15.09375v16.027343h-15.09375zm0 0"/><path d="m216.394531 127.765625h15.09375v16.03125h-15.09375zm0 0"/><path d="m184.335938 127.765625h15.09375v16.03125h-15.09375zm0 0"/><path d="m152.277344 344.160156h15.09375v16.03125h-15.09375zm0 0"/><path d="m152.277344 376.21875h15.09375v16.03125h-15.09375zm0 0"/><path d="m152.277344 408.277344h15.09375v16.027344h-15.09375zm0 0"/><path d="m447.882812 288.058594v-17.414063c13.785157-3.394531 24.042969-15.855469 24.042969-30.671875 0-17.421875-14.171875-31.59375-31.589843-31.59375-17.421876 0-31.589844 14.171875-31.589844 31.59375 0 14.816406 10.257812 27.277344 24.042968 30.671875v17.414063zm-24.042968-48.085938c0-9.097656 7.398437-16.5 16.496094-16.5 9.097656 0 16.496093 7.402344 16.496093 16.5 0 9.09375-7.398437 16.496094-16.496093 16.496094-9.097657 0-16.496094-7.402344-16.496094-16.496094zm0 0"/></svg>