<svg id="Capa_1" enable-background="new 0 0 512 512" height="512" viewBox="0 0 512 512" width="512" xmlns="http://www.w3.org/2000/svg"><g id="XMLID_71_"><g id="XMLID_1512_"><path id="XMLID_1515_" d="m107.68 356.324c2.63 0 5.21-1.069 7.07-2.93 1.859-1.86 2.93-4.439 2.93-7.07 0-2.64-1.07-5.22-2.93-7.069-1.86-1.87-4.44-2.931-7.07-2.931s-5.21 1.061-7.07 2.931c-1.859 1.859-2.93 4.43-2.93 7.069 0 2.62 1.07 5.2 2.93 7.07 1.86 1.861 4.44 2.93 7.07 2.93z"/><path id="XMLID_2030_" d="m506.504 422.31-88.832-88.832c-1.024-1.024-2.155-1.897-3.353-2.647v-87.15l10.806 9.998c1.92 1.776 4.356 2.659 6.79 2.659 2.563 0 5.123-.98 7.072-2.929l70.084-70.084c3.561-3.561 3.918-9.213.835-13.193l-64.425-83.2c-21.789-28.14-55.544-45.386-91.009-46.73-.531-5.938-2.289-11.825-5.314-17.348-7.836-14.308-22.253-22.849-38.564-22.849h-109.188c-16.312 0-30.729 8.541-38.564 22.849-3.025 5.523-4.783 11.411-5.314 17.348-35.465 1.344-69.22 18.59-91.008 46.73l-64.426 83.2c-3.083 3.98-2.726 9.633.835 13.193l70.084 70.084c1.949 1.948 4.509 2.929 7.072 2.929 2.434 0 4.87-.883 6.79-2.659l10.806-9.998v57.632c0 5.522 4.478 10 10 10s10-4.478 10-10v-230.853c13.233-6.487 27.869-10.103 42.813-10.332 1.037 2.58 2.315 5.099 3.864 7.522l47.34 74.072c1.687 2.641 4.514 4.337 7.637 4.584.265.021.527.031.79.031 2.843 0 5.568-1.213 7.474-3.356l18.401-20.705v315.729h-128.319v-46.686c0-5.522-4.478-10-10-10s-10 4.478-10 10v56.686c0 5.522 4.478 10 10 10h266.132l48.492 48.504c3.658 3.658 8.464 5.487 13.27 5.487s9.611-1.829 13.27-5.487l57.66-57.66c3.544-3.544 5.496-8.257 5.496-13.269-.001-5.013-1.953-9.726-5.497-13.27zm-164.006-93.82c-21.6-18.569-52.071-21.535-76.498-8.874v-197.34l18.402 20.705c1.905 2.144 4.63 3.356 7.474 3.356.263 0 .526-.011.79-.031 3.123-.247 5.95-1.943 7.637-4.584l47.34-74.072c1.548-2.423 2.827-4.942 3.864-7.522 14.944.229 29.58 3.845 42.813 10.332v257.522h-47.555c-1.47 0-2.894.187-4.267.508zm-86.498-251.172-36.397-57.313h72.794zm173.668 21.857 59.032 76.235-57.054 57.054-17.327-16.031v-133.066c5.648 4.663 10.812 9.949 15.349 15.808zm-98.052-66.715c4.271 7.799 3.963 16.929-.825 24.421l-40.222 62.934-22.085-24.849 47.263-74.422c6.718 1.433 12.446 5.665 15.869 11.916zm-233.935 183.974-17.327 16.031-57.054-57.054 59.033-76.235c4.537-5.859 9.701-11.146 15.348-15.808zm123.75-96.62-40.222-62.934c-4.788-7.492-5.097-16.622-.825-24.421 3.424-6.251 9.151-10.482 15.869-11.916l47.263 74.422zm44.569 318.191v-94.409c17.871-15.3 44.261-15.583 62.433-.822-.278 1.282-.433 2.609-.433 3.973v57.662c0 5.013 1.951 9.725 5.494 13.268l20.323 20.328zm169.574 53.488-87.574-87.595v-41.929l13.554 13.554c1.953 1.952 4.512 2.929 7.071 2.929s5.118-.977 7.071-2.929c3.905-3.905 3.905-10.237 0-14.143l-13.398-13.398h41.593l87.598 87.598z"/></g></g></svg>