<svg viewBox="0 0 512.00203 512" xmlns="http://www.w3.org/2000/svg"><path d="m151.34375 151.34375h144.730469v-15.09375h-159.824219v239.5h47.617188v-15.09375h-32.523438zm0 0"/><path d="m320.117188 151.34375h40.539062v209.3125h-152.742188v15.09375h167.835938v-239.5h-55.632812zm0 0"/><path d="m247.984375 208.378906v15.09375h87.695313v-47.148437h-159.359376v47.148437h47.621094v-15.09375h-32.523437v-16.960937h129.164062v16.960937zm0 0"/><path d="m264.480469 336.148438h15.097656v-80.613282h56.566406v-15.09375h-160.289062v15.09375h88.625zm0 0"/><path d="m175.855469 272.496094h16.027343v15.09375h-16.027343zm0 0"/><path d="m207.914062 272.496094h16.027344v15.09375h-16.027344zm0 0"/><path d="m175.855469 304.554688h16.027343v15.09375h-16.027343zm0 0"/><path d="m296.074219 272.496094h40.070312v15.09375h-40.070312zm0 0"/><path d="m296.074219 304.554688h40.070312v15.09375h-40.070312zm0 0"/><path d="m488.421875 232.425781c-10.359375 0-19.175781 6.71875-22.328125 16.027344h-17.742188v15.097656h17.742188c3.152344 9.308594 11.96875 16.027344 22.328125 16.027344 13.003906 0 23.578125-10.574219 23.578125-23.574219 0-13.003906-10.574219-23.578125-23.578125-23.578125zm0 32.058594c-4.675781 0-8.480469-3.804687-8.480469-8.484375 0-4.675781 3.804688-8.480469 8.480469-8.480469 4.679687 0 8.484375 3.804688 8.484375 8.480469 0 4.679688-3.804688 8.484375-8.484375 8.484375zm0 0"/><path d="m488.421875 320.585938c-10.359375 0-19.175781 6.71875-22.328125 16.027343h-26.226562v-24.042969h-24.042969v-24.980468h24.042969v-63.179688h-24.042969v-24.976562h24.042969v-24.046875h26.226562c3.152344 9.308593 11.96875 16.03125 22.328125 16.03125 13.003906 0 23.578125-10.578125 23.578125-23.578125s-10.574219-23.574219-23.578125-23.574219c-10.359375 0-19.175781 6.71875-22.328125 16.027344h-26.226562v-24.042969h-24.042969v-40.074219h-40.074219v-24.042969h-24.042969v-26.226562c9.308594-3.152344 16.03125-11.96875 16.03125-22.328125 0-13-10.578125-23.578125-23.578125-23.578125s-23.578125 10.578125-23.578125 23.578125c0 10.359375 6.722657 19.175781 16.03125 22.328125v26.226562h-24.042969v24.042969h-24.980468v-24.042969h-24.042969v-26.226562c9.308594-3.152344 16.027344-11.96875 16.027344-22.328125 0-13-10.574219-23.578125-23.574219-23.578125s-23.578125 10.578125-23.578125 23.578125c0 10.359375 6.71875 19.175781 16.03125 22.328125v26.226562h-24.046875v24.042969h-24.976562v-24.042969h-63.183594v24.042969h-40.070313v40.074219h-24.042969v24.042969h-26.226562c-3.152344-9.308594-11.96875-16.027344-22.328125-16.027344-13 0-23.578125 10.574219-23.578125 23.574219s10.578125 23.578125 23.578125 23.578125c10.359375 0 19.175781-6.722657 22.328125-16.03125h26.226562v24.046875h24.042969v24.976562h-24.042969v63.179688h24.042969v24.980468h-24.042969v24.042969h-26.226562c-3.152344-9.308593-11.96875-16.027343-22.328125-16.027343-13 0-23.578125 10.574218-23.578125 23.574218s10.578125 23.578125 23.578125 23.578125c10.359375 0 19.175781-6.71875 22.328125-16.03125h26.226562v24.046875h24.042969v40.070313h40.074219v24.046875h24.042969v26.222656c-9.308594 3.15625-16.03125 11.972656-16.03125 22.332031 0 13 10.578125 23.578125 23.578125 23.578125s23.578125-10.578125 23.578125-23.578125c0-10.359375-6.722657-19.175781-16.03125-22.332031v-26.222656h24.046875v-24.046875h24.976562v24.046875h24.042969v26.222656c-9.308594 3.15625-16.027344 11.972656-16.027344 22.332031 0 13 10.574219 23.578125 23.578125 23.578125 13 0 23.574219-10.578125 23.574219-23.578125 0-10.359375-6.71875-19.175781-16.027344-22.332031v-26.222656h24.042969v-24.046875h24.976562v24.046875h63.183594v-24.046875h40.070313v-40.070313h24.046875v-24.046875h26.222656c3.15625 9.308594 11.972656 16.03125 22.332031 16.03125 13 0 23.578125-10.578125 23.578125-23.578125s-10.578125-23.574218-23.582031-23.574218zm0-161.226563c4.679687 0 8.484375 3.804687 8.484375 8.480469 0 4.679687-3.804688 8.484375-8.484375 8.484375-4.675781 0-8.480469-3.804688-8.480469-8.484375 0-4.675782 3.804688-8.480469 8.480469-8.480469zm-144.261719-144.265625c4.675782 0 8.484375 3.804688 8.484375 8.484375 0 4.675781-3.804687 8.480469-8.484375 8.480469-4.675781 0-8.480468-3.804688-8.480468-8.480469 0-4.679687 3.804687-8.484375 8.480468-8.484375zm-88.160156 0c4.675781 0 8.480469 3.804688 8.480469 8.484375 0 4.675781-3.804688 8.480469-8.480469 8.480469s-8.484375-3.804688-8.484375-8.480469c.003906-4.679687 3.808594-8.484375 8.484375-8.484375zm-232.421875 161.230469c-4.679687 0-8.484375-3.804688-8.484375-8.484375 0-4.675782 3.804688-8.480469 8.484375-8.480469 4.675781 0 8.480469 3.804687 8.480469 8.480469 0 4.679687-3.804688 8.484375-8.480469 8.484375zm0 176.320312c-4.679687 0-8.484375-3.804687-8.484375-8.484375 0-4.675781 3.804688-8.480468 8.484375-8.480468 4.675781 0 8.480469 3.804687 8.480469 8.480468 0 4.679688-3.804688 8.484375-8.480469 8.484375zm144.261719 144.261719c-4.675782 0-8.484375-3.804688-8.484375-8.480469 0-4.679687 3.804687-8.484375 8.484375-8.484375 4.675781 0 8.480468 3.804688 8.480468 8.484375 0 4.675781-3.804687 8.480469-8.480468 8.480469zm88.160156 0c-4.675781 0-8.484375-3.804688-8.484375-8.480469 0-4.679687 3.804687-8.484375 8.484375-8.484375 4.675781 0 8.480469 3.804688 8.480469 8.484375 0 4.675781-3.804688 8.480469-8.480469 8.480469zm168.773438-224.410156h-8.949219v-32.992188h8.949219zm0-88.160156h-8.949219v-32.992188h8.949219zm-97.109376-97.109376h32.992188v8.949219h-32.992188zm-88.160156 0h32.992188v8.949219h-32.992188zm-88.160156 0h32.992188v8.949219h-32.992188zm-64.117188 64.117188h8.949219v32.992188h-8.949219zm0 88.160156h8.949219v32.992188h-8.949219zm0 88.160156h8.949219v32.992188h-8.949219zm97.109376 97.109376h-32.992188v-8.949219h32.992188zm88.160156 0h-32.992188v-8.949219h32.992188zm88.160156 0h-32.992188v-8.949219h32.992188zm40.074219-24.042969h-289.460938v-289.460938h289.460938zm24.042969-40.074219h-8.949219v-32.992188h8.949219zm63.648437-8.011719c-4.675781 0-8.480469-3.804687-8.480469-8.484375 0-4.675781 3.804688-8.480468 8.480469-8.480468 4.679687 0 8.484375 3.804687 8.484375 8.480468 0 4.679688-3.804688 8.484375-8.484375 8.484375zm0 0"/><path d="m23.578125 279.578125c10.359375 0 19.175781-6.71875 22.328125-16.03125h17.742188v-15.09375h-17.742188c-3.152344-9.308594-11.96875-16.03125-22.328125-16.03125-13 .003906-23.578125 10.578125-23.578125 23.578125s10.578125 23.578125 23.578125 23.578125zm0-32.058594c4.675781 0 8.480469 3.804688 8.480469 8.484375 0 4.675782-3.804688 8.480469-8.480469 8.480469-4.679687 0-8.484375-3.804687-8.484375-8.480469 0-4.679687 3.804688-8.484375 8.484375-8.484375zm0 0"/><path d="m160.292969 45.90625v17.746094h15.09375v-17.746094c9.308593-3.152344 16.03125-11.96875 16.03125-22.328125 0-13-10.578125-23.578125-23.578125-23.578125s-23.578125 10.578125-23.578125 23.578125c0 10.359375 6.722656 19.175781 16.03125 22.328125zm7.546875-30.8125c4.675781 0 8.480468 3.804688 8.480468 8.484375 0 4.675781-3.804687 8.480469-8.480468 8.480469-4.675782 0-8.484375-3.804688-8.484375-8.480469 0-4.679687 3.808593-8.484375 8.484375-8.484375zm0 0"/><path d="m351.707031 466.09375v-17.742188h-15.09375v17.742188c-9.308593 3.15625-16.03125 11.96875-16.03125 22.332031 0 13 10.578125 23.574219 23.578125 23.574219s23.578125-10.574219 23.578125-23.574219c0-10.363281-6.722656-19.175781-16.03125-22.332031zm-7.546875 30.8125c-4.675781 0-8.480468-3.804688-8.480468-8.480469 0-4.679687 3.804687-8.484375 8.480468-8.484375 4.675782 0 8.484375 3.804688 8.484375 8.484375 0 4.675781-3.808593 8.480469-8.484375 8.480469zm0 0"/><path d="m207.914062 304.554688h16.027344v15.09375h-16.027344zm0 0"/></svg>