<svg id="Capa_1" enable-background="new 0 0 512 512" height="512" viewBox="0 0 512 512" width="512" xmlns="http://www.w3.org/2000/svg"><g id="XMLID_1035_"><g id="XMLID_1322_"><path id="XMLID_1323_" d="m153.45 312.389c-5.522 0-10 4.477-10 10v78.627c0 4.87 3.508 9.032 8.308 9.856.708.122 1.252.215 10.08.215 4.214 0 10.316-.021 19.224-.071 5.523-.031 9.976-4.533 9.944-10.056-.031-5.504-4.502-9.944-9.999-9.944-.019 0-.038 0-.057 0-5.354.03-12.093.057-17.5.064v-68.691c0-5.523-4.477-10-10-10z"/><path id="XMLID_2002_" d="m418.842 322.389v78.693c0 5.523 4.478 10 10 10h33.158c5.522 0 10-4.477 10-10s-4.478-10-10-10h-23.158v-19.347h20.713c5.522 0 10-4.477 10-10s-4.478-10-10-10h-20.713v-19.347h23.158c5.522 0 10-4.477 10-10s-4.478-10-10-10h-33.158c-5.523.001-10 4.478-10 10.001z"/><path id="XMLID_2003_" d="m117.595 400.736c1.49-1.329 2.904-2.788 4.203-4.336 3.548-4.232 2.994-10.54-1.238-14.088-4.231-3.547-10.54-2.995-14.088 1.238-.679.809-1.413 1.567-2.181 2.252-3.935 3.504-8.963 5.28-14.944 5.28-16.182.001-29.347-13.164-29.347-29.346s13.165-29.347 29.347-29.347c5.883 0 11.554 1.731 16.4 5.006 4.576 3.092 10.793 1.889 13.885-2.688s1.889-10.792-2.688-13.885c-8.166-5.517-17.709-8.434-27.598-8.434-27.21 0-49.347 22.137-49.347 49.347s22.137 49.347 49.347 49.347c10.88.001 20.647-3.576 28.249-10.346z"/><path id="XMLID_2004_" d="m365.815 391.083c-7.776 0-15.258-3.133-20.013-8.38-3.708-4.092-10.033-4.404-14.125-.695-4.093 3.708-4.403 10.033-.695 14.125 8.483 9.361 21.505 14.95 34.833 14.95 16.663 0 30.657-10.639 33.274-25.297 1.971-11.037-3.031-25.453-22.979-32.812-9.639-3.555-18.614-7.426-21.397-8.645-2.06-1.67-1.99-3.989-1.851-4.957.194-1.358 1.184-4.677 6.145-6.171 10.991-3.313 21.199 4.731 21.505 4.977 4.228 3.505 10.498 2.948 14.038-1.264 3.554-4.228 3.007-10.536-1.221-14.089-.746-.627-18.508-15.272-40.091-8.774-10.926 3.291-18.655 11.905-20.173 22.479-1.425 9.927 2.435 20.594 11.923 25.298.472.234-.481-.215 0 0 .455.203 11.991 5.407 24.2 9.91 3.411 1.259 11.236 4.804 10.213 10.532-.773 4.332-6.066 8.813-13.586 8.813z"/><path id="XMLID_2179_" d="m309.047 361.736c0-27.21-22.137-49.347-49.347-49.347s-49.347 22.137-49.347 49.347 22.137 49.347 49.347 49.347 49.347-22.137 49.347-49.347zm-78.693 0c0-16.182 13.165-29.347 29.347-29.347s29.347 13.165 29.347 29.347-13.165 29.347-29.347 29.347-29.347-13.165-29.347-29.347z"/><path id="XMLID_2321_" d="m469.288 227.736h-47.067l-138.211-138.212c8.58-7.695 13.99-18.857 13.99-31.263 0-23.159-18.841-42-42-42s-42 18.841-42 42c0 12.405 5.41 23.568 13.99 31.263l-138.211 138.212h-47.067c-23.552 0-42.712 20.552-42.712 45.813v176.374c0 25.261 19.16 45.813 42.712 45.813h168.288c5.522 0 10-4.477 10-10s-4.478-10-10-10h-168.288c-12.523 0-22.712-11.58-22.712-25.813v-176.374c0-14.233 10.188-25.813 22.712-25.813h426.576c12.523 0 22.712 11.58 22.712 25.813v176.374c0 14.233-10.188 25.813-22.712 25.813h-168.288c-5.522 0-10 4.477-10 10s4.478 10 10 10h168.288c23.552 0 42.712-20.552 42.712-45.813v-176.374c0-25.261-19.16-45.813-42.712-45.813zm-213.288-191.475c12.131 0 22 9.869 22 22s-9.869 22-22 22-22-9.869-22-22 9.869-22 22-22zm-9.39 62.929c3.021.693 6.162 1.071 9.39 1.071s6.369-.378 9.39-1.071l128.546 128.546h-275.872z"/><path id="XMLID_2323_" d="m61.069 288.809c1.86-1.86 2.931-4.44 2.931-7.07s-1.07-5.21-2.931-7.07c-1.859-1.86-4.439-2.93-7.069-2.93s-5.21 1.07-7.07 2.93-2.93 4.43-2.93 7.07c0 2.63 1.069 5.21 2.93 7.07 1.86 1.86 4.44 2.93 7.07 2.93s5.21-1.07 7.069-2.93z"/><path id="XMLID_2346_" d="m465.069 288.809c1.86-1.87 2.931-4.44 2.931-7.07s-1.07-5.21-2.931-7.07c-1.859-1.87-4.439-2.93-7.069-2.93-2.641 0-5.21 1.06-7.07 2.93-1.86 1.86-2.93 4.43-2.93 7.07 0 2.63 1.069 5.21 2.93 7.07 1.86 1.86 4.43 2.93 7.07 2.93 2.63 0 5.21-1.07 7.069-2.93z"/><path id="XMLID_2704_" d="m46.93 434.669c-1.86 1.86-2.93 4.44-2.93 7.07s1.069 5.21 2.93 7.07c1.86 1.86 4.44 2.93 7.07 2.93s5.21-1.07 7.069-2.93c1.86-1.87 2.931-4.44 2.931-7.07s-1.07-5.21-2.931-7.07c-1.859-1.87-4.439-2.93-7.069-2.93s-5.21 1.06-7.07 2.93z"/><path id="XMLID_2705_" d="m450.93 434.669c-1.86 1.86-2.93 4.43-2.93 7.07 0 2.63 1.069 5.21 2.93 7.07 1.86 1.86 4.44 2.93 7.07 2.93s5.21-1.07 7.069-2.93c1.86-1.86 2.931-4.44 2.931-7.07s-1.07-5.21-2.931-7.07c-1.859-1.87-4.439-2.93-7.069-2.93s-5.21 1.06-7.07 2.93z"/><path id="XMLID_2706_" d="m256 475.739c-2.63 0-5.21 1.06-7.07 2.93-1.86 1.86-2.93 4.44-2.93 7.07s1.069 5.21 2.93 7.07c1.86 1.86 4.44 2.93 7.07 2.93s5.21-1.07 7.069-2.93c1.86-1.86 2.931-4.44 2.931-7.07s-1.07-5.21-2.931-7.07c-1.859-1.87-4.439-2.93-7.069-2.93z"/></g></g></svg>